<?xml version="1.0" encoding="UTF-8"?>
<svg version="1.1" xmlns="http://www.w3.org/2000/svg" width="620" height="402">
<path d="M0 0 C2.73186319 2.13409298 3.87194394 3.2981452 4.50139666 6.74807495 C4.50204607 7.81313815 4.50269547 8.87820136 4.50336456 9.97553921 C4.51379555 11.20657515 4.52422654 12.43761109 4.53497362 13.70595115 C4.52632514 15.07418768 4.5172985 16.44242187 4.50793457 17.81065369 C4.51254208 19.26247854 4.51889398 20.71429874 4.52684355 22.16610914 C4.54358114 26.1608991 4.53527059 30.15530809 4.52289867 34.15009964 C4.51386843 38.45625859 4.52780786 42.76235088 4.53881836 47.0684967 C4.55663035 55.50659101 4.55275157 63.94454322 4.5411678 72.38264316 C4.53214367 79.23940158 4.53090505 86.09612011 4.53526306 92.95288277 C4.53587599 93.92782435 4.53648893 94.90276593 4.53712043 95.9072512 C4.5383993 97.88768042 4.53969615 99.86810963 4.5410108 101.84853882 C4.5524246 120.43135139 4.53929066 139.0140851 4.51780933 157.59688473 C4.49994043 173.54859744 4.5030392 189.5001937 4.52148438 205.4519043 C4.5428818 223.96550193 4.55132293 242.47903038 4.53903532 260.99263865 C4.53776109 262.96619291 4.53650361 264.93974718 4.53526306 266.91330147 C4.53464596 267.88438477 4.53402886 268.85546807 4.53339306 269.85597814 C4.52993656 276.70555093 4.535775 283.55507992 4.54518127 290.40464592 C4.55639024 298.75059068 4.55338458 307.09638493 4.5320583 315.44231241 C4.52153255 319.70217943 4.51745183 323.96179535 4.53065491 328.22166061 C4.54255348 332.11954626 4.53605863 336.01694748 4.5147447 339.91478903 C4.51026777 341.32658808 4.51256937 342.73842786 4.52224785 344.15020084 C4.53437856 346.06631238 4.51956586 347.9825382 4.50336456 349.89861965 C4.50271515 350.96384521 4.50206574 352.02907077 4.50139666 353.12657589 C3.87384141 356.72299472 2.52698933 358.41214023 0 361 C-3.06624229 361.86912854 -5.88880763 361.6348205 -9 361 C-11.50160818 359.12379387 -12.61945652 357.76108697 -14 355 C-14.09737791 353.10780032 -14.12919277 351.21211094 -14.13142776 349.31740856 C-14.13526891 348.1008049 -14.13911005 346.88420124 -14.1430676 345.63073081 C-14.14228726 344.2684028 -14.14140846 342.90607484 -14.14044189 341.54374695 C-14.14302408 340.10602816 -14.14603682 338.66831009 -14.1494453 337.23059303 C-14.15753585 333.26561194 -14.15930601 329.30064894 -14.16004276 325.33566058 C-14.16188976 321.06493493 -14.16943529 316.79421874 -14.17617798 312.52349854 C-14.18977641 303.17853925 -14.19578837 293.83358424 -14.20018864 284.4886167 C-14.20294851 278.65688279 -14.20718539 272.82515053 -14.21169281 266.99341774 C-14.22388745 250.8565961 -14.23418638 234.71977579 -14.2375679 218.58294964 C-14.23778747 217.54958136 -14.23800703 216.51621309 -14.23823325 215.45153062 C-14.23845153 214.41564727 -14.23866981 213.37976392 -14.2388947 212.31249017 C-14.23933817 210.21329097 -14.23978474 208.11409177 -14.24023438 206.01489258 C-14.2404558 204.97361058 -14.24067723 203.93232858 -14.24090537 202.85949258 C-14.24485446 185.9821103 -14.262311 169.10477117 -14.2855939 152.22740557 C-14.30928868 134.91213637 -14.3217689 117.59688884 -14.32293582 100.28160316 C-14.32385364 90.55467716 -14.32963272 80.82780738 -14.34775543 71.10089684 C-14.36313117 62.818985 -14.36829187 54.53714674 -14.36001733 46.25522336 C-14.35610183 42.02780333 -14.35708408 37.80053158 -14.37107468 33.57312965 C-14.38375992 29.70486009 -14.38266377 25.83685105 -14.37048396 21.96858213 C-14.36851759 20.56748304 -14.37164857 19.16636583 -14.38032833 17.76529225 C-14.39136569 15.86359643 -14.38217172 13.96181517 -14.3719368 12.06011486 C-14.37253389 11.00291845 -14.37313097 9.94572203 -14.37374616 8.85648936 C-13.94088118 5.54816318 -12.96487105 3.67493019 -11 1 C-7.1230868 -1.30519163 -4.28479093 -1.2763207 0 0 Z " fill="#F10404" transform="translate(453,37)"/>
<path d="M0 0 C3.68042775 1.07066989 5.09616859 2.02831013 7.4375 5 C8.67702564 7.47905128 8.56736428 9.12471989 8.57451439 11.8989296 C8.5821262 13.46165537 8.5821262 13.46165537 8.58989179 15.05595136 C8.59038955 16.2094265 8.59088731 17.36290164 8.59140015 18.55133057 C8.5957824 19.76978818 8.60016465 20.98824579 8.6046797 22.24362636 C8.61576203 25.63660612 8.62229763 29.02953966 8.62686086 32.42253089 C8.63281041 36.07773255 8.64442185 39.73291714 8.65515137 43.3881073 C8.67969003 52.22089018 8.69430456 61.05367873 8.70721143 69.88648522 C8.71092226 72.38038585 8.71489558 74.87428592 8.7189641 77.368186 C8.74419923 92.84800729 8.76625692 108.32782945 8.77869225 123.80766678 C8.78162204 127.39440158 8.78458369 130.98113636 8.78759766 134.56787109 C8.78834371 135.45936004 8.78908976 136.350849 8.78985842 137.26935276 C8.80251517 151.71468576 8.83574163 166.15989576 8.87739949 180.60517123 C8.91979867 195.42876703 8.94338493 210.25229982 8.94861281 225.07595611 C8.9520292 233.40177776 8.96381109 241.7274072 8.99671555 250.05316925 C9.02468957 257.14310163 9.03572712 264.23280241 9.02452008 271.32278571 C9.01932655 274.9408541 9.02226424 278.55843728 9.04698563 282.17643547 C9.07355824 286.09806677 9.06144117 290.01903345 9.04550171 293.94073486 C9.0593838 295.08528712 9.07326588 296.22983937 9.08756864 297.40907502 C9.00132866 305.99272654 9.00132866 305.99272654 6.04427528 309.70829391 C3.34424544 312.08198331 2.39814909 312.78430761 -1.125 312.625 C-4.32597507 312.40663065 -5.39632605 312.12047612 -8.0625 310.1875 C-10.40873578 306.76590615 -10.68795689 304.06078228 -10.69113445 300.02208138 C-10.6943589 298.98810663 -10.69758335 297.95413189 -10.7009055 296.88882458 C-10.6993569 295.74925301 -10.6978083 294.60968144 -10.69621277 293.43557739 C-10.69847833 292.22781045 -10.70074388 291.0200435 -10.70307809 289.77567756 C-10.70832532 286.41722515 -10.70906093 283.05882615 -10.70788372 279.70037341 C-10.70768005 276.08066087 -10.71319523 272.46095637 -10.71794128 268.84124756 C-10.72625575 261.74727245 -10.72899648 254.65330564 -10.72955366 247.55932607 C-10.73002845 241.79427846 -10.73208133 236.0292336 -10.73525429 230.26418686 C-10.74406306 213.92732982 -10.74867332 197.59047936 -10.74792381 181.25361992 C-10.74788386 180.37247906 -10.7478439 179.4913382 -10.74780273 178.58349609 C-10.74776185 177.70128218 -10.74772097 176.81906826 -10.74767885 175.91012059 C-10.74727233 161.60972131 -10.75684295 147.30934835 -10.7709411 133.00895669 C-10.78529525 118.33336464 -10.79221181 103.65778544 -10.79134732 88.9821862 C-10.79101502 80.73976205 -10.79377672 72.4973655 -10.80452538 64.25494766 C-10.81361774 57.23752255 -10.81581606 50.22013754 -10.80901595 43.20270909 C-10.80574432 39.6213695 -10.80571713 36.0401069 -10.8143692 32.45877457 C-10.82364693 28.5786104 -10.81747492 24.69855948 -10.80973816 20.81838989 C-10.81488172 19.68327976 -10.82002529 18.54816963 -10.82532471 17.37866223 C-10.82072592 16.33947199 -10.81612712 15.30028176 -10.81138897 14.22960091 C-10.81160634 13.33394798 -10.81182371 12.43829506 -10.81204766 11.51550114 C-10.39981494 7.36009499 -9.19540476 4.68715374 -6.375 1.625 C-3.5625 0 -3.5625 0 0 0 Z " fill="#F30303" transform="translate(13.5625,86)"/>
<path d="M0 0 C2.57507283 2.03078355 3.83922945 3.21099279 4.50139666 6.4606843 C4.50204607 7.38959026 4.50269547 8.31849622 4.50336456 9.27555084 C4.51379555 10.35045068 4.52422654 11.42535052 4.53497362 12.53282309 C4.52605073 13.71296437 4.51712785 14.89310565 4.50793457 16.10900879 C4.51729451 17.99037781 4.51729451 17.99037781 4.52684355 19.90975428 C4.54357023 23.39342274 4.53527573 26.87665393 4.52289867 30.36032414 C4.513864 34.11636041 4.52781001 37.87232046 4.53881836 41.62834167 C4.55662518 48.98726162 4.55275403 56.34601858 4.5411678 63.70494497 C4.53214222 69.6845206 4.53090567 75.66405049 4.53526306 81.64363098 C4.53587599 82.49397003 4.53648893 83.34430908 4.53712043 84.22041598 C4.5383993 85.94774593 4.53969616 87.67507587 4.5410108 89.4024058 C4.55242293 105.60788093 4.53929298 121.81326563 4.51780933 138.01872593 C4.49993777 151.93033525 4.5030417 165.84181106 4.52148438 179.75341797 C4.54287993 195.90003773 4.55132423 212.04657817 4.53903532 228.19321012 C4.53776109 229.91426308 4.53650361 231.63531604 4.53526306 233.35636902 C4.53464596 234.20320807 4.53402886 235.05004712 4.53339306 235.92254797 C4.5299362 241.89644881 4.5357757 247.87029944 4.54518127 253.8441925 C4.55638805 261.12225021 4.55338917 268.40013531 4.5320583 275.67817318 C4.52152993 279.393132 4.51745611 283.1078028 4.53065491 286.82275963 C4.54473219 290.84575535 4.52794913 294.86802091 4.50793457 298.89099121 C4.5213189 300.66120313 4.5213189 300.66120313 4.53497362 302.46717691 C4.52454263 303.54207675 4.51411164 304.61697659 4.50336456 305.72444916 C4.50271515 306.65335512 4.50206574 307.58226108 4.50139666 308.5393157 C3.84544656 311.75849574 2.51667001 312.95813284 0 315 C-2.18359375 315.6015625 -2.18359375 315.6015625 -4.4375 315.625 C-5.17871094 315.65851563 -5.91992188 315.69203125 -6.68359375 315.7265625 C-9.54147591 314.83016101 -11.07655043 313.38177771 -12.92686176 311.05656826 C-15.21801949 306.66578048 -14.67374034 301.64570652 -14.62145996 296.80906677 C-14.62784878 295.57015169 -14.6342376 294.3312366 -14.64082003 293.05477864 C-14.65343217 289.62280663 -14.643642 286.19222825 -14.62430525 282.76037562 C-14.60887122 279.05684587 -14.62228185 275.35340523 -14.63204956 271.64987183 C-14.64657486 264.39778921 -14.63434377 257.14598658 -14.61293632 249.89393049 C-14.58892484 241.44981896 -14.59064075 233.00577156 -14.59324223 224.56163348 C-14.59693232 209.49651585 -14.57610696 194.43153015 -14.54199219 179.36645508 C-14.50889499 164.74532741 -14.4947349 150.1243382 -14.50097656 135.50317383 C-14.50773924 119.58322899 -14.50528429 103.66334215 -14.48561716 87.74340588 C-14.48405793 86.48089903 -14.48405793 86.48089903 -14.4824672 85.192887 C-14.4803763 83.50240557 -14.47826533 81.81192416 -14.47613403 80.12144278 C-14.4692363 74.23416474 -14.46856947 68.34690457 -14.47001648 62.45962334 C-14.47145557 55.2866924 -14.46177655 48.11387442 -14.43807012 40.94098096 C-14.42620314 37.28061682 -14.41908959 33.62041018 -14.42490768 29.96002769 C-14.43102454 25.99455645 -14.41392974 22.02938209 -14.39440918 18.06394958 C-14.39973711 16.90364918 -14.40506503 15.74334877 -14.41055441 14.54788774 C-14.40149777 13.48616383 -14.39244113 12.42443992 -14.38311005 11.33054256 C-14.38153884 10.41525152 -14.37996764 9.49996048 -14.37834883 8.55693334 C-13.8195241 4.78031907 -12.25771776 1.98820681 -9.25 -0.375 C-5.85887913 -1.31697802 -3.39008797 -0.84752199 0 0 Z " fill="#F60202" transform="translate(120,83)"/>
<path d="M0 0 C3.11247873 2.43951035 4.28103893 4.17616502 5 8 C5.08830397 9.47966668 5.12727373 10.96273826 5.12863445 12.44503689 C5.1318589 13.33470006 5.13508335 14.22436324 5.1384055 15.14098591 C5.1368569 16.11422481 5.1353083 17.08746371 5.13371277 18.0901947 C5.13597833 19.12730687 5.13824388 20.16441904 5.14057809 21.23295885 C5.14692409 24.71903783 5.14608834 28.20507799 5.14526367 31.69116211 C5.14825476 34.18607127 5.15165717 36.68097997 5.15544128 39.17588806 C5.16337027 45.25572089 5.16649612 51.33553836 5.16705366 57.41537493 C5.16752876 62.35660005 5.1695832 67.29782198 5.17275429 72.2390461 C5.18156049 86.24581903 5.18617365 100.25258429 5.18542381 114.25936001 C5.18538386 115.01448165 5.1853439 115.7696033 5.18530273 116.54760742 C5.18526185 117.30365002 5.18522097 118.05969261 5.18517885 118.83864558 C5.18477227 131.09556081 5.19434499 143.35244534 5.2084411 155.60935169 C5.22279799 168.19219274 5.22971168 180.7750188 5.22884732 193.35786825 C5.22851514 200.42320748 5.23127153 207.48851451 5.24202538 214.55384636 C5.25207101 221.19647009 5.25180207 227.83903733 5.24450874 234.48166847 C5.24345995 236.92259699 5.24584315 239.36352969 5.2518692 241.80445099 C5.25955036 245.13065554 5.25496998 248.45662247 5.24723816 251.78282166 C5.25238172 252.75382984 5.25752529 253.72483802 5.26282471 254.72527069 C5.23503226 260.11763933 5.02490891 264.33718626 1.6484375 268.77734375 C-0.45000067 270.33376827 -1.77538411 270.49595693 -4.375 270.5625 C-5.50035156 270.62630859 -5.50035156 270.62630859 -6.6484375 270.69140625 C-10.30125852 269.61740406 -12.22282242 267.23553664 -14 264 C-14.71856711 260.51500923 -14.66682689 257.10378816 -14.62145996 253.55540466 C-14.62784878 252.50433299 -14.6342376 251.45326131 -14.64082003 250.37033898 C-14.65607957 246.84863736 -14.63560104 243.32805893 -14.61523438 239.80639648 C-14.61873523 237.28163276 -14.6243934 234.75687124 -14.63204956 232.2321167 C-14.64483018 226.08690494 -14.6343525 219.94210998 -14.61293632 213.79693394 C-14.58891124 206.64020135 -14.59064158 199.48354429 -14.59324223 192.32678033 C-14.59693139 179.55771004 -14.57611499 166.78879546 -14.54199219 154.01977539 C-14.50889451 141.62976141 -14.49473518 129.23991082 -14.50097656 116.84985352 C-14.50774063 103.35583948 -14.50528043 89.86189387 -14.48561716 76.36788994 C-14.48457768 75.65434949 -14.48353819 74.94080904 -14.4824672 74.20564615 C-14.48037632 72.77255429 -14.47826534 71.33946247 -14.47613403 69.90637068 C-14.46923902 64.91777831 -14.46856902 59.92920702 -14.47001648 54.94061089 C-14.47160651 48.22730194 -14.45671158 41.5142165 -14.43078995 34.8009491 C-14.42361565 32.33422863 -14.42155057 29.86748736 -14.42490768 27.40075874 C-14.42861028 24.03949587 -14.41391672 20.67880829 -14.39440918 17.31761169 C-14.39973711 16.33629491 -14.40506503 15.35497812 -14.41055441 14.34392446 C-14.36111493 9.42277399 -14.25703002 5.96569955 -11 2 C-7.14808282 -1.12317609 -4.72449837 -1.50781863 0 0 Z " fill="#F50303" transform="translate(427,128)"/>
<path d="M0 0 C2.1572876 1.37141418 2.1572876 1.37141418 4 4 C4.62202736 7.61554753 4.56340743 11.20872202 4.54589844 14.86987305 C4.55623045 15.98840007 4.56656246 17.10692709 4.57720757 18.25934887 C4.60693359 22.01028098 4.60813061 25.76067702 4.609375 29.51171875 C4.62450933 32.18118811 4.64118756 34.85060666 4.65975952 37.52005005 C4.70114005 43.99255399 4.7212012 50.46495634 4.73395979 56.93757319 C4.7495478 64.43991854 4.78664181 71.94211234 4.82423425 79.44437397 C4.9078493 96.37769253 4.95158094 113.31101641 4.98567855 130.24449641 C4.99617754 135.38976933 5.0087415 140.53503354 5.02282715 145.68029785 C5.02475036 146.38288823 5.02667356 147.08547861 5.02865505 147.80935961 C5.03250844 149.21469569 5.03636287 150.62003178 5.04021835 152.02536786 C5.08112457 167.06891092 5.10807786 182.11244473 5.12159729 197.15604019 C5.12386432 199.59213417 5.1264579 202.02822786 5.12937927 204.46432114 C5.13758013 211.38433699 5.14046384 218.30431203 5.13457108 225.2243309 C5.13342361 227.29287567 5.13385628 229.36142209 5.13608932 231.42996597 C5.14174841 237.62114128 5.11002401 243.80973731 5 250 C4.98679466 250.79462521 4.97358932 251.58925041 4.95998383 252.40795517 C4.91147608 254.64037737 4.83306452 256.86930787 4.74169922 259.1003418 C4.69649139 260.34397995 4.65128357 261.5876181 4.60470581 262.86894226 C3.89862786 266.52488668 2.91835057 267.75708978 0 270 C-2.18359375 270.6015625 -2.18359375 270.6015625 -4.4375 270.625 C-5.17871094 270.65851563 -5.91992188 270.69203125 -6.68359375 270.7265625 C-10.29468909 269.59390865 -12.22847184 267.22016473 -14 264 C-14.7227359 260.50544089 -14.67532591 257.08286383 -14.63491821 253.52416992 C-14.64271817 252.46972026 -14.65051812 251.4152706 -14.65855443 250.32886791 C-14.6784974 246.79571275 -14.66269978 243.2636319 -14.64697266 239.73046875 C-14.65374769 237.19747285 -14.66265018 234.66448187 -14.67352295 232.13150024 C-14.69396664 225.96592002 -14.69095918 219.8007376 -14.67645974 213.6351521 C-14.66516322 208.62387931 -14.66363837 203.61269179 -14.66907883 198.60140991 C-14.66984499 197.88791199 -14.67061116 197.17441407 -14.67140054 196.43929499 C-14.67299918 194.98979256 -14.67462025 193.54029015 -14.6762635 192.09078777 C-14.69051786 178.50192474 -14.67413325 164.91323042 -14.64726166 151.32439506 C-14.6249231 139.66702525 -14.62880332 128.00990438 -14.65185547 116.35253906 C-14.67861907 102.81198815 -14.6891446 89.27158506 -14.67379415 75.73101139 C-14.67220142 74.28687098 -14.67062957 72.84273054 -14.66907883 71.39859009 C-14.66830745 70.68806384 -14.66753607 69.97753759 -14.66674132 69.24548024 C-14.66242598 64.24079632 -14.66970725 59.23620625 -14.68147659 54.23153687 C-14.69697219 47.49432251 -14.68592457 40.75765093 -14.65700531 34.02045822 C-14.65038709 31.54609331 -14.6523046 29.07168888 -14.66331863 26.59733963 C-14.67695548 23.22296615 -14.65987834 19.85010673 -14.63491821 16.47583008 C-14.64607182 15.49353518 -14.65722543 14.51124029 -14.66871703 13.49917889 C-14.60512071 9.07547953 -14.44966815 5.95710887 -11.64781761 2.40776062 C-7.63236001 -1.24364673 -5.12274709 -1.35909617 0 0 Z " fill="#F50202" transform="translate(376,128)"/>
<path d="M0 0 C2.75274224 2.71751732 3.90208813 4.37737307 4.50780869 8.2291832 C4.51149586 9.46015858 4.51518303 10.69113396 4.51898193 11.95941162 C4.52648319 12.64877784 4.53398444 13.33814406 4.541713 14.04840016 C4.5619814 16.35516527 4.55388734 18.6609461 4.54589844 20.96777344 C4.55463916 22.62658149 4.56512669 24.28538112 4.57722473 25.94416809 C4.60518949 30.46675364 4.60848533 34.98906595 4.60750484 39.51172543 C4.61065694 44.31136422 4.63636521 49.11088479 4.65948486 53.91046143 C4.70018647 63.07642529 4.7203907 72.24231852 4.73345876 81.40835881 C4.74895578 91.57535257 4.78749666 101.74221132 4.82803059 111.90913105 C4.91229824 133.26082086 4.95673312 154.61246435 4.98704863 175.96429014 C4.99722265 182.8475895 5.01310998 189.73086397 5.0310514 196.61414695 C5.04686705 202.74713592 5.0590494 208.8801236 5.06790185 215.01312661 C5.07292454 218.46040937 5.07932497 221.90767181 5.08992767 225.35494232 C5.15505395 248.6253707 5.15505395 248.6253707 4.74511719 258.41699219 C4.69941589 259.59428894 4.6537146 260.77158569 4.60662842 261.98455811 C3.87589397 265.61690899 2.57517142 267.37534221 0 270 C-2.18359375 270.6640625 -2.18359375 270.6640625 -4.4375 270.625 C-5.17871094 270.63789063 -5.91992188 270.65078125 -6.68359375 270.6640625 C-10.32648121 269.61972714 -11.68855179 268.00124013 -14 265 C-14.74086877 261.53663078 -14.66611171 258.13032562 -14.62145996 254.59973145 C-14.62784878 253.54134709 -14.6342376 252.48296273 -14.64082003 251.39250612 C-14.65610093 247.84006406 -14.63558686 244.28873166 -14.61523438 240.73632812 C-14.61873461 238.19200775 -14.62439208 235.64768956 -14.63204956 233.1033783 C-14.64483823 226.90656179 -14.63434211 220.71015822 -14.61293632 214.51337707 C-14.58892489 207.29740872 -14.59064078 200.08151543 -14.59324223 192.86551601 C-14.59693256 179.99051684 -14.57610568 167.11567203 -14.54199219 154.24072266 C-14.50890072 141.74686787 -14.49473387 129.25317508 -14.50097656 116.75927734 C-14.50774061 103.15503433 -14.50527995 89.55085918 -14.48561716 75.94662619 C-14.48457768 75.22723206 -14.48353819 74.50783792 -14.4824672 73.76664397 C-14.48037631 72.32177166 -14.47826533 70.87689938 -14.47613403 69.43202713 C-14.46923842 64.40186836 -14.46856913 59.3717305 -14.47001648 54.34156799 C-14.47160652 47.57163951 -14.4567114 40.80193266 -14.43078995 34.03204536 C-14.42361541 31.54436242 -14.42155068 29.05665884 -14.42490768 26.56896782 C-14.42861009 23.17918931 -14.4139173 19.78998134 -14.39440918 16.40026855 C-14.39973711 15.41048775 -14.40506503 14.42070695 -14.41055441 13.40093279 C-14.36156439 8.48350043 -14.29823156 4.94171922 -11 1 C-7.13771402 -1.29649437 -4.25712707 -1.35865758 0 0 Z " fill="#F40202" transform="translate(530,128)"/>
<path d="M0 0 C3.33387324 0.06967902 4.34939157 0.17518389 7.125 2.1875 C9.24442899 5.27833394 9.7500541 7.75660252 9.76201439 11.41308308 C9.7696262 12.64961454 9.7696262 12.64961454 9.77739179 13.91112643 C9.77788955 14.81655899 9.77838731 15.72199154 9.77890015 16.65486145 C9.7832824 17.61690969 9.78766465 18.57895792 9.7921797 19.57015914 C9.80558206 22.80824932 9.81174976 26.04631227 9.81787109 29.28442383 C9.82577081 31.60022607 9.83403968 33.91602708 9.84265137 36.23182678 C9.86888247 43.84854962 9.88417823 51.465278 9.8984375 59.08203125 C9.90379638 61.70167227 9.90917388 64.32131326 9.91456985 66.94095421 C9.93619849 77.83471761 9.95508805 88.7284787 9.96619225 99.62225819 C9.96912193 102.44877438 9.9720836 105.27529054 9.97509766 108.10180664 C9.97584371 108.80432136 9.97658976 109.50683608 9.97735842 110.23063912 C9.99001537 121.61402445 10.02324394 132.9972537 10.06489949 144.38056604 C10.10731488 156.0672822 10.13047901 167.75391015 10.13611281 179.44070262 C10.13977171 186.00260702 10.1518509 192.56424673 10.18421555 199.12607765 C10.21421938 205.29767244 10.22063521 211.46884129 10.20883179 217.64049339 C10.20861042 219.90685994 10.21696707 222.17324583 10.23448563 224.43954468 C10.25708841 227.53160879 10.2489228 230.62211673 10.23300171 233.71418762 C10.2468838 234.61292801 10.26076588 235.5116684 10.27506864 236.43764335 C10.2207136 240.71623737 9.95171611 243.52381851 7.23177528 246.93339062 C4.625 249.375 4.625 249.375 2.30859375 250.1015625 C-3.75075951 249.82757435 -3.75075951 249.82757435 -6.875 247.5625 C-8.99224828 244.47484625 -9.50001499 242.00255765 -9.50642776 238.34974098 C-9.51026891 237.52825337 -9.51411005 236.70676576 -9.5180676 235.86038458 C-9.51720112 234.95816086 -9.51633463 234.05593713 -9.51544189 233.12637329 C-9.51841302 232.16770304 -9.52138414 231.20903279 -9.5244453 230.22131193 C-9.5331477 226.99470052 -9.53464184 223.76812614 -9.53613281 220.54150391 C-9.54075985 218.23393168 -9.54578435 215.92636023 -9.55117798 213.61878967 C-9.56431387 207.33990652 -9.5707491 201.06103406 -9.57518864 194.7821393 C-9.57811706 190.86218782 -9.5822214 186.94223928 -9.58669281 183.02228928 C-9.59880243 172.1705543 -9.60918456 161.31882257 -9.6125679 150.46708107 C-9.61278747 149.7725556 -9.61300703 149.07803013 -9.61323325 148.36245843 C-9.61345153 147.66626725 -9.61366981 146.97007607 -9.6138947 146.25278819 C-9.61433817 144.84202806 -9.61478473 143.43126794 -9.61523438 142.02050781 C-9.6154558 141.3207214 -9.61567723 140.62093498 -9.61590537 139.89994292 C-9.61985438 128.55796113 -9.63731183 117.21604355 -9.6605939 105.87408657 C-9.68430046 94.23144602 -9.69651136 82.58884088 -9.69793582 70.94617593 C-9.69898567 64.40841177 -9.70493176 57.87073817 -9.72275543 51.33299637 C-9.73918957 45.18528173 -9.74141427 39.03772621 -9.73261642 32.88999748 C-9.73184359 30.63128548 -9.73622106 28.37256508 -9.74607468 26.11387444 C-9.758721 23.03492285 -9.75295711 19.95654106 -9.74249268 16.87759399 C-9.75054908 15.97983171 -9.75860548 15.08206943 -9.76690602 14.15710223 C-9.71162185 7.22164256 -8.11765077 0.1348447 0 0 Z " fill="#F60202" transform="translate(140.375,148.625)"/>
<path d="M0 0 C2.86942113 2.26533247 3.83907612 3.51722837 5 7 C5.09827305 9.81269613 5.1390469 12.60058072 5.13371277 15.41342163 C5.13597833 16.28225373 5.13824388 17.15108583 5.14057809 18.04624617 C5.14692778 20.96883243 5.1460881 23.89137243 5.14526367 26.81396484 C5.14825456 28.90479086 5.15165692 30.99561631 5.15544128 33.08644104 C5.16429267 38.77443719 5.16661988 44.4624183 5.16725707 50.15042067 C5.16820534 54.89459316 5.17188269 59.63876212 5.17542917 64.38293326 C5.18357806 75.57365002 5.186013 86.76435874 5.18530273 97.95507812 C5.18470183 109.50836999 5.19525529 121.06161518 5.2110464 132.61489522 C5.22411119 142.52578209 5.22948708 152.43665367 5.22884732 162.34754908 C5.22859202 168.27048737 5.23146087 174.1933842 5.24202538 180.11631393 C5.2516885 185.68618019 5.25179781 191.2559652 5.24450874 196.82583427 C5.24346067 198.8716856 5.2458389 200.91754193 5.2518692 202.96338463 C5.2595607 205.75322307 5.25496314 208.54277894 5.24723816 211.33261108 C5.25238172 212.1447725 5.25752529 212.95693393 5.26282471 213.7937063 C5.23191685 218.83481182 4.74550631 222.67265826 1.6875 226.75 C-0.57843201 228.42846816 -2.18953604 228.79925257 -5 229 C-9.51020584 227.8999498 -11.53949082 225.87877917 -14 222 C-14.57432952 219.07453437 -14.53593371 216.20593475 -14.50120544 213.23217773 C-14.50673984 212.34938613 -14.51227424 211.46659452 -14.51797634 210.55705166 C-14.53158964 207.59894599 -14.51660985 204.64168305 -14.50170898 201.68359375 C-14.50549191 199.56291343 -14.51099172 197.44223557 -14.51808167 195.32156372 C-14.53205694 189.56127237 -14.52085179 183.80127902 -14.50437045 178.04100418 C-14.49053236 172.01618458 -14.49697862 165.99138249 -14.50050354 159.96655273 C-14.50320664 149.84842113 -14.48972141 139.73040808 -14.46655273 129.61230469 C-14.43994244 117.91010538 -14.43819557 106.20810432 -14.4499411 94.50588512 C-14.46071587 83.25423328 -14.45453414 72.00265323 -14.44038582 60.75100708 C-14.43462343 55.96003525 -14.4347107 51.16911592 -14.43945122 46.37814331 C-14.44421936 40.73760371 -14.43412588 35.09728153 -14.41249657 29.45678329 C-14.40692634 27.38513802 -14.40646555 25.31347187 -14.41144943 23.2418251 C-14.41739378 20.41691525 -14.40491327 17.59267202 -14.38768005 14.76782227 C-14.3936901 13.94535224 -14.39970014 13.12288221 -14.40589231 12.27548885 C-14.35471496 7.67140391 -13.85291287 4.66785993 -11 1 C-7.44544736 -1.79286279 -4.2131487 -1.05328717 0 0 Z " fill="#F90102" transform="translate(171,170)"/>
<path d="M0 0 C3.16161807 2.41281379 4.25706923 4.17082115 5 8 C5.09625714 10.77486587 5.13915422 13.52439223 5.13371277 16.29916382 C5.13597833 17.14364346 5.13824388 17.9881231 5.14057809 18.85819304 C5.14691628 21.69242248 5.14608884 24.52660409 5.14526367 27.36083984 C5.14825527 29.39107831 5.1516578 31.4213162 5.15544128 33.45155334 C5.16428528 38.97014142 5.16661956 44.488714 5.16725707 50.00730848 C5.168206 54.61225856 5.1718841 59.21720501 5.17542917 63.82215369 C5.1835752 74.68547411 5.18601326 85.54878625 5.18530273 96.41210938 C5.18470185 107.62287635 5.19525553 118.83359523 5.2110464 130.04435003 C5.22411619 139.66567854 5.22948687 149.28699133 5.22884732 158.90832865 C5.22859218 164.65634452 5.23145258 170.40431764 5.24202538 176.15232468 C5.25169692 181.55805292 5.25179199 186.96369747 5.24450874 192.36942863 C5.24346174 194.35358362 5.24583263 196.3377438 5.2518692 198.32188988 C5.25957568 201.03031499 5.25495318 203.73845012 5.24723816 206.4468689 C5.25238172 207.23208967 5.25752529 208.01731044 5.26282471 208.82632577 C5.23033185 213.98798472 4.76940922 218.59135335 1.6484375 222.83984375 C-0.45213932 224.3182118 -1.81627292 224.49700357 -4.375 224.5625 C-5.50035156 224.62630859 -5.50035156 224.62630859 -6.6484375 224.69140625 C-10.25862844 223.62993815 -12.16792378 221.15310571 -14 218 C-14.69365086 215.09126136 -14.66812128 212.28837717 -14.62145996 209.30847168 C-14.62784878 208.44594898 -14.6342376 207.58342628 -14.64082003 206.69476652 C-14.65605351 203.8110097 -14.63561976 200.92863038 -14.61523438 198.04492188 C-14.61873606 195.97497605 -14.62439517 193.90503291 -14.63204956 191.83509827 C-14.64630021 186.21728257 -14.62923291 180.59995619 -14.60576439 174.98218727 C-14.58566129 169.10332036 -14.59153467 163.22447388 -14.59387207 157.34558105 C-14.59381849 147.47298104 -14.57405804 137.60057237 -14.54199219 127.72802734 C-14.50509924 116.31381512 -14.49631662 104.89985357 -14.5032897 93.4855895 C-14.50959484 82.50570382 -14.49884016 71.5259041 -14.47932434 60.54603577 C-14.47114937 55.87312088 -14.46844098 51.20024993 -14.47001648 46.52732849 C-14.47089539 41.02464875 -14.45667717 35.52220726 -14.43078995 30.01959038 C-14.42362751 27.99997042 -14.42154489 25.98032512 -14.42490768 23.96069527 C-14.42862214 21.20404777 -14.41387596 18.44809566 -14.39440918 15.69152832 C-14.39973711 14.892108 -14.40506503 14.09268767 -14.41055441 13.26904249 C-14.35190423 8.45585428 -13.6100451 5.19429484 -11 1 C-7.51811815 -1.86011723 -4.17847912 -1.04461978 0 0 Z " fill="#FC0000" transform="translate(299,174)"/>
<path d="M0 0 C2.19439602 1.52217197 2.19439602 1.52217197 4 4 C4.39488282 6.94391621 4.54476307 9.51409843 4.5146637 12.45774841 C4.52508199 13.75002754 4.52508199 13.75002754 4.53571075 15.06841332 C4.55403379 17.96050298 4.54370174 20.85177725 4.53344727 23.74389648 C4.54050306 25.81517147 4.54924664 27.88644129 4.55955505 29.95770264 C4.582097 35.58787139 4.57909801 41.21775967 4.57023358 46.84795642 C4.56513101 51.54497573 4.57241033 56.24194199 4.57970566 60.93895584 C4.59672001 72.01802599 4.59312338 83.09695846 4.57641602 94.17602539 C4.55949213 105.61301208 4.57532965 117.04961718 4.6076389 128.48656219 C4.63431298 138.29983201 4.64161671 148.11298289 4.63312382 157.92628533 C4.62818837 163.79003336 4.63044371 169.65355172 4.65091133 175.51727104 C4.66923408 181.03068412 4.66335113 186.54354722 4.63871193 192.05693054 C4.63369327 194.08181545 4.637221 196.10674202 4.64986038 198.1315937 C4.66573796 200.89345498 4.65089047 203.65349347 4.62818909 206.41526794 C4.64594268 207.62081405 4.64594268 207.62081405 4.66405493 208.85071462 C4.59567013 212.93818286 4.19456778 214.76109178 1.57792568 217.97404575 C-2.2724501 221 -2.2724501 221 -5 221 C-11.49253731 218.76119403 -11.49253731 218.76119403 -14 215 C-14.20027436 212.20081524 -14.28255551 209.50048182 -14.27415466 206.70046997 C-14.28200968 205.41559781 -14.28200968 205.41559781 -14.29002339 204.10476863 C-14.30507067 201.22360762 -14.30572957 198.34262345 -14.30639648 195.46142578 C-14.31401477 193.40015359 -14.32244169 191.33888425 -14.33161926 189.27761841 C-14.3536032 183.67019571 -14.36236834 178.06282755 -14.36744571 172.45536661 C-14.37108453 168.95418427 -14.37732209 165.45301632 -14.3844471 161.95183945 C-14.40895464 149.74343994 -14.42199642 137.53508301 -14.42553711 125.32666016 C-14.42917391 113.93686533 -14.45907643 102.54733973 -14.50094169 91.15762722 C-14.53560044 81.38685939 -14.55108478 71.61618097 -14.55178314 61.84535205 C-14.55257743 56.00615498 -14.5613859 50.16723201 -14.58978081 44.3280983 C-14.61588584 38.83689622 -14.61820887 33.34619699 -14.60212517 27.8549614 C-14.60030468 25.83812619 -14.60705521 23.82126257 -14.62294388 21.80448914 C-14.64329728 19.05355811 -14.63291634 16.30440423 -14.61473083 13.55349731 C-14.6279308 12.75300874 -14.64113077 11.95252016 -14.65473074 11.12777436 C-14.59306318 7.0512781 -14.19132101 5.23560913 -11.58657932 2.02790642 C-7.3035679 -1.33002128 -5.34514517 -1.19804978 0 0 Z " fill="#FD0000" transform="translate(479,178)"/>
<path d="M0 0 C4.63235294 2.26470588 4.63235294 2.26470588 6 5 C6.10313782 7.22063083 6.13955029 9.44443834 6.14717102 11.66744995 C6.15084771 12.36054044 6.1545244 13.05363093 6.1583125 13.76772416 C6.1693686 16.10150449 6.1731964 18.43524034 6.17700195 20.76904297 C6.18326506 22.4377049 6.18991172 24.10636543 6.19691467 25.77502441 C6.2143365 30.31634718 6.22487927 34.85765941 6.2331202 39.39900732 C6.23826697 42.23432061 6.24434279 45.0696306 6.25063133 47.90494156 C6.26968517 56.77041317 6.28391691 65.63587643 6.2922433 74.50136459 C6.30202289 84.74575376 6.32836037 94.98992727 6.36874419 105.23424041 C6.39886609 113.14595695 6.41370836 121.05761153 6.41702431 128.96938431 C6.41937895 133.69798791 6.42839307 138.42636116 6.45348549 143.15490341 C6.47670324 147.60201857 6.48102501 152.04875068 6.47072411 156.49591064 C6.47022712 158.12937822 6.47659525 159.76286424 6.49028015 161.39627457 C6.50790357 163.62417379 6.50094179 165.85068399 6.48774719 168.07858276 C6.49013555 169.32593641 6.4925239 170.57329006 6.49498463 171.85844231 C5.90883887 175.57857951 4.957379 176.74613401 2 179 C-0.18359375 179.6015625 -0.18359375 179.6015625 -2.4375 179.625 C-3.17871094 179.65851563 -3.91992188 179.69203125 -4.68359375 179.7265625 C-8.21786115 178.61800645 -10.11340484 176.05894083 -12 173 C-12.62361908 169.68319607 -12.62361908 169.68319607 -12.62145996 166.01011658 C-12.62784878 165.33064817 -12.6342376 164.65117975 -12.64082003 163.95112139 C-12.6560143 161.68677559 -12.6356489 159.42419542 -12.61523438 157.15991211 C-12.61873726 155.53168663 -12.62439772 153.90346457 -12.63204956 152.2752533 C-12.6462822 147.86196252 -12.62925186 143.44929593 -12.60576439 139.03606486 C-12.58564063 134.41528618 -12.59153568 129.79453304 -12.59387207 125.17372131 C-12.59381852 117.41543293 -12.57407343 109.65738827 -12.54199219 101.89916992 C-12.50508734 92.93088805 -12.49631865 83.96292525 -12.5032897 74.99457735 C-12.50959541 66.36399716 -12.49883999 57.73352633 -12.47932434 49.10296822 C-12.47115187 45.43122359 -12.46844051 41.75953487 -12.47001648 38.08778191 C-12.4708956 33.76453283 -12.45667205 29.44158685 -12.43078995 25.11841774 C-12.42362984 23.53215886 -12.42154379 21.94586773 -12.42490768 20.35959625 C-12.42862457 18.19370228 -12.41386913 16.02869187 -12.39440918 13.86289978 C-12.39068047 12.65116057 -12.38695175 11.43942137 -12.38311005 10.19096279 C-11.95994039 6.66633939 -11.13063317 4.81385487 -9 2 C-5.4913604 -0.33909307 -4.12910567 -0.41291057 0 0 Z " fill="#F80102" transform="translate(246,219)"/>
<path d="M0 0 C2.88582283 2.17028898 3.88546205 3.3369389 4.50615788 6.93015194 C4.51036826 8.65153802 4.51036826 8.65153802 4.5146637 10.40769958 C4.52738815 11.72699463 4.54011261 13.04628967 4.55322266 14.40556335 C4.54704031 15.86599911 4.54043428 17.32643311 4.53344727 18.78686523 C4.54050518 20.32612943 4.54924966 21.86538669 4.55955505 23.40463257 C4.58207404 27.58446372 4.57910349 31.76391668 4.57023358 35.94378543 C4.56512645 39.4329419 4.57241405 42.92202713 4.57970566 46.41117626 C4.5967128 54.64242619 4.59313086 62.87349077 4.57641602 71.10473633 C4.559494 79.59706696 4.57532827 88.08888361 4.6076389 96.5811581 C4.63432832 103.87216574 4.64161257 111.16301332 4.63312382 118.45406491 C4.62819263 122.80877624 4.63042029 127.16317831 4.65091133 131.51785088 C4.66925843 135.61302991 4.66332237 139.70746929 4.63871193 143.80260849 C4.63370082 145.30502388 4.63720173 146.80749553 4.64986038 148.30986595 C4.66578667 150.36253357 4.65085068 152.41276412 4.62818909 154.46531677 C4.62760278 155.61328452 4.62701647 156.76125227 4.62641239 157.94400692 C3.80748869 161.93917878 2.10057103 163.44343355 -1 166 C-3.0625 166.69921875 -3.0625 166.69921875 -5 166.6875 C-5.639375 166.71199219 -6.27875 166.73648438 -6.9375 166.76171875 C-10.49665929 165.44725651 -12.37751694 163.32062244 -14 160 C-14.76482417 155.07086227 -14.68412417 150.14532306 -14.64697266 145.16967773 C-14.6537524 143.64982049 -14.66265755 142.12997147 -14.67352295 140.61013794 C-14.69627895 136.49231458 -14.68749612 132.37511893 -14.67162752 128.25728488 C-14.65895151 123.94478612 -14.67071314 119.6323404 -14.67855835 115.31983948 C-14.687649 108.07942065 -14.67568141 100.83925702 -14.65185547 93.59887695 C-14.6246349 85.23031888 -14.63346722 76.8623697 -14.6609875 68.49382633 C-14.68368205 61.30467407 -14.68687731 54.11570503 -14.67379415 46.92652851 C-14.66600281 42.63445972 -14.66494937 38.34267711 -14.68147659 34.05062675 C-14.69592768 30.01612862 -14.68588892 25.98241527 -14.65700531 21.94800186 C-14.65039821 20.46817007 -14.65228589 18.98827214 -14.66331863 17.50846672 C-14.67699662 15.48743434 -14.65679617 13.46625749 -14.63491821 11.44529724 C-14.63303308 10.31467582 -14.63114796 9.18405439 -14.6292057 8.01917171 C-13.80315741 4.05547333 -12.06091965 2.55696748 -9 0 C-5.81452856 -1.59273572 -3.39809153 -0.76164121 0 0 Z " fill="#FC0000" transform="translate(197,232)"/>
<path d="M0 0 C3.33387324 0.06967902 4.34939157 0.17518389 7.125 2.1875 C9.50711449 5.66141696 9.75228575 8.42240511 9.76544189 12.52352905 C9.77400711 14.12177269 9.77400711 14.12177269 9.78274536 15.75230408 C9.78386322 16.92120682 9.78498108 18.09010956 9.78613281 19.29443359 C9.79109772 20.52554367 9.79606262 21.75665375 9.80117798 23.02507019 C9.81328737 26.40323556 9.82074483 29.78133902 9.82518864 33.15951872 C9.82812073 35.27036652 9.83222578 37.38120891 9.83669281 39.49205399 C9.85036448 46.09737573 9.860033 52.70268508 9.8638947 59.30802 C9.86837613 66.93128625 9.88592917 74.55437326 9.9148953 82.17758501 C9.9365129 88.07152148 9.946599 93.96540753 9.94793582 99.85938323 C9.94898371 103.37904669 9.95488804 106.89854159 9.97275543 110.4181633 C9.99229978 114.34442682 9.98794681 118.27046631 9.98144531 122.19677734 C9.9906601 123.36163162 9.99987488 124.5264859 10.0093689 125.72663879 C10.00379974 126.7977742 9.99823059 127.86890961 9.99249268 128.97250366 C9.99395924 129.90053991 9.9954258 130.82857616 9.9969368 131.78473473 C9.41119018 135.86402756 7.4966163 138.5033837 4.625 141.375 C1.58735384 141.87931963 -1.33189139 141.82442707 -4.375 141.375 C-7.40715675 139.17668636 -8.19154398 137.92536806 -9.375 134.375 C-9.47133254 132.66089007 -9.50993449 130.94327684 -9.51544189 129.22647095 C-9.52115204 128.16097519 -9.52686218 127.09547943 -9.53274536 125.99769592 C-9.53386322 124.82879318 -9.53498108 123.65989044 -9.53613281 122.45556641 C-9.54109772 121.22445633 -9.54606262 119.99334625 -9.55117798 118.72492981 C-9.56328737 115.34676444 -9.57074483 111.96866098 -9.57518864 108.59048128 C-9.57812073 106.47963348 -9.58222578 104.36879109 -9.58669281 102.25794601 C-9.60036448 95.65262427 -9.610033 89.04731492 -9.6138947 82.44198 C-9.61837613 74.81871375 -9.63592917 67.19562674 -9.6648953 59.57241499 C-9.6865129 53.67847852 -9.696599 47.78459247 -9.69793582 41.89061677 C-9.69898371 38.37095331 -9.70488804 34.85145841 -9.72275543 31.3318367 C-9.74229978 27.40557318 -9.73794681 23.47953369 -9.73144531 19.55322266 C-9.7406601 18.38836838 -9.74987488 17.2235141 -9.7593689 16.02336121 C-9.75379974 14.9522258 -9.74823059 13.88109039 -9.74249268 12.77749634 C-9.74395924 11.84946009 -9.7454258 10.92142384 -9.7469368 9.96526527 C-8.91833826 4.19468806 -5.91196817 0.09820545 0 0 Z " fill="#F50202" transform="translate(345.375,256.625)"/>
<path d="M0 0 C2.96858157 2.20740681 3.82865791 3.48597373 5 7 C5.09605094 8.66344485 5.13492119 10.3304671 5.14044189 11.99667358 C5.14900711 13.5444323 5.14900711 13.5444323 5.15774536 15.12345886 C5.15886322 16.25495865 5.15998108 17.38645844 5.16113281 18.55224609 C5.16609772 19.74434189 5.17106262 20.93643768 5.17617798 22.16465759 C5.18828617 25.4353783 5.19574453 28.70606327 5.20018864 31.97680235 C5.203121 34.02064635 5.20722609 36.06448477 5.21169281 38.10832596 C5.22536409 44.50434479 5.23503279 50.90035083 5.2388947 57.29638326 C5.24337599 64.6774099 5.26092854 72.0582514 5.2898953 79.43922174 C5.31151488 85.14632336 5.32159911 90.85337291 5.32293582 96.56051505 C5.32398357 99.96839812 5.32988493 103.37610706 5.34775543 106.78394699 C5.36477233 110.58576312 5.36294613 114.38712629 5.35644531 118.18896484 C5.3656601 119.31641617 5.37487488 120.44386749 5.3843689 121.60548401 C5.37879974 122.6429628 5.37323059 123.68044159 5.36749268 124.74935913 C5.36895924 125.64789801 5.3704258 126.54643688 5.3719368 127.47220421 C4.77776887 131.51035044 2.84345898 134.15654102 0 137 C-3.03764616 137.50431963 -5.95689139 137.44942707 -9 137 C-12.03215675 134.80168636 -12.81654398 133.55036806 -14 130 C-14.09605094 128.33655515 -14.13492119 126.6695329 -14.14044189 125.00332642 C-14.14615204 123.97148727 -14.15186218 122.93964813 -14.15774536 121.87654114 C-14.15886322 120.74504135 -14.15998108 119.61354156 -14.16113281 118.44775391 C-14.16609772 117.25565811 -14.17106262 116.06356232 -14.17617798 114.83534241 C-14.18828617 111.5646217 -14.19574453 108.29393673 -14.20018864 105.02319765 C-14.203121 102.97935365 -14.20722609 100.93551523 -14.21169281 98.89167404 C-14.22536409 92.49565521 -14.23503279 86.09964917 -14.2388947 79.70361674 C-14.24337599 72.3225901 -14.26092854 64.9417486 -14.2898953 57.56077826 C-14.31151488 51.85367664 -14.32159911 46.14662709 -14.32293582 40.43948495 C-14.32398357 37.03160188 -14.32988493 33.62389294 -14.34775543 30.21605301 C-14.36477233 26.41423688 -14.36294613 22.61287371 -14.35644531 18.81103516 C-14.3656601 17.68358383 -14.37487488 16.55613251 -14.3843689 15.39451599 C-14.37879974 14.3570372 -14.37323059 13.31955841 -14.36749268 12.25064087 C-14.36895924 11.35210199 -14.3704258 10.45356312 -14.3719368 9.52779579 C-13.91202027 6.40206296 -12.8459522 4.54717138 -11 2 C-7.32807887 -0.44794742 -4.26893972 -0.71435887 0 0 Z " fill="#F30303" transform="translate(222,261)"/>
<path d="M0 0 C0.77085937 -0.04898437 1.54171875 -0.09796875 2.3359375 -0.1484375 C4.625 0.375 4.625 0.375 6.73472595 2.33789062 C9.31229178 6.4792739 9.19505697 9.70614726 9.15844727 14.4921875 C9.16706284 15.4017218 9.17567841 16.3112561 9.18455505 17.24835205 C9.20722307 20.24919238 9.20047498 23.24909956 9.19140625 26.25 C9.19664119 28.33838173 9.20291719 30.42676109 9.21018982 32.51513672 C9.22059538 36.88976171 9.21602977 41.26406143 9.20141602 45.63867188 C9.18422194 51.24455069 9.20773081 56.84940516 9.24290562 62.45516968 C9.26486515 66.76691479 9.2634417 71.07841421 9.2551403 75.39019775 C9.25432012 77.45706303 9.26119637 79.52394622 9.27591133 81.59075928 C9.29333171 84.48041796 9.27883587 87.36822821 9.25610352 90.2578125 C9.26779572 91.11095032 9.27948792 91.96408813 9.29153442 92.84307861 C9.22162691 97.21067059 9.03018414 98.86634293 6.21446228 102.40112305 C3.72667388 104.29749675 2.68926327 105.08103385 -0.375 105.0625 C-1.014375 105.08699219 -1.65375 105.11148438 -2.3125 105.13671875 C-5.68412825 103.89151514 -7.62012057 101.40073496 -9.375 98.375 C-10.07147515 95.34907397 -10.03963694 92.42257452 -9.99023438 89.32788086 C-9.99578339 88.43770767 -10.0013324 87.54753448 -10.00704956 86.63038635 C-10.01882212 83.69965104 -9.99459684 80.77046998 -9.96875 77.83984375 C-9.96703833 75.7977353 -9.96710515 73.75562464 -9.96887207 71.71351624 C-9.96722024 67.43892323 -9.94854547 63.16485555 -9.91699219 58.89038086 C-9.87729014 53.41363555 -9.87295077 47.93757723 -9.88045502 42.46071529 C-9.88352547 38.24591284 -9.87140185 34.0312646 -9.85432434 29.81649971 C-9.84729812 27.79710419 -9.84416935 25.77769119 -9.84501648 23.75828362 C-9.84321722 20.9361096 -9.82182503 18.11475652 -9.79492188 15.29272461 C-9.79785248 14.45985931 -9.80078308 13.62699402 -9.80380249 12.76889038 C-9.73609687 8.16181395 -9.36004014 5.11880717 -6.375 1.375 C-4.08773777 0.23136888 -2.54647573 0.10998068 0 0 Z " fill="#F60303" transform="translate(320.375,293.625)"/>
<path d="M0 0 C4.53336782 2.75944128 4.53336782 2.75944128 5.62373352 5.65821838 C6.16204684 9.00853604 6.14737638 12.33479189 6.14526367 15.71850586 C6.14862228 16.49134415 6.1519809 17.26418243 6.15544128 18.06044006 C6.16493024 20.61192436 6.16689328 23.16334291 6.16796875 25.71484375 C6.17118246 27.49076871 6.17454662 29.2666934 6.17805481 31.0426178 C6.18404071 34.76401381 6.18589523 38.48538662 6.18530273 42.20678711 C6.18520107 46.97274528 6.19885974 51.73855461 6.21607494 56.5044775 C6.22719823 60.17192772 6.22922185 63.83934197 6.22869301 67.50680733 C6.22987238 69.26385575 6.23429175 71.02090513 6.24202538 72.77793694 C6.25183307 75.23609706 6.24894433 77.69393418 6.24291992 80.15209961 C6.24853943 80.87589813 6.25415894 81.59969666 6.25994873 82.34542847 C6.22994829 87.16771999 5.60855572 90.85525904 2.6875 94.75 C0.42156799 96.42846816 -1.18953604 96.79925257 -4 97 C-8.50837489 95.90039637 -10.52016618 93.86023869 -13 90 C-13.38724879 87.13597832 -13.5480541 84.65995064 -13.51757812 81.80078125 C-13.5245874 80.98878265 -13.53159668 80.17678406 -13.53881836 79.34017944 C-13.55638138 76.6639354 -13.54478201 73.98875425 -13.53125 71.3125 C-13.53394541 69.44832151 -13.53782824 67.58414439 -13.54284668 65.7199707 C-13.54873942 61.81610711 -13.54018602 57.91261001 -13.52148438 54.00878906 C-13.49869492 49.00833463 -13.51181921 44.00873898 -13.53577423 39.00831604 C-13.55023828 35.15980577 -13.54562344 31.31149862 -13.53526306 27.46298218 C-13.53259745 25.61941425 -13.53585971 23.77582779 -13.54518127 21.93228149 C-13.55535697 19.35409804 -13.53983245 16.77729924 -13.51757812 14.19921875 C-13.52567505 13.43958832 -13.53377197 12.67995789 -13.54211426 11.89730835 C-13.46370742 6.98659004 -12.51255778 4.44104855 -9 1 C-5.89951072 -0.55024464 -3.42105782 -0.28992015 0 0 Z " fill="#F90202" transform="translate(554,302)"/>
<path d="M0 0 C4.53223167 2.75874971 4.53223167 2.75874971 5.6227417 5.65248108 C6.16616801 9.03399328 6.1559394 12.39479405 6.16113281 15.81030273 C6.16609772 16.59289459 6.17106262 17.37548645 6.17617798 18.18179321 C6.19076053 20.76573572 6.19759419 23.34961689 6.203125 25.93359375 C6.20887858 27.73193869 6.21463629 29.53028362 6.22039795 31.32862854 C6.23089605 35.09709966 6.23674687 38.86554952 6.24023438 42.6340332 C6.24572418 47.4605874 6.26976755 52.28686021 6.29820633 57.11332607 C6.31683496 60.82710085 6.32203837 64.54080777 6.32357025 68.25462532 C6.32659554 70.03401291 6.33461993 71.81339934 6.34775543 73.59274101 C6.3648248 76.08214621 6.36293397 78.57086264 6.35644531 81.06030273 C6.3656601 81.793452 6.37487488 82.52660126 6.3843689 83.28196716 C6.33849926 88.90444052 4.93302815 92.06697185 1 96 C-1.96575376 96.96186608 -3.60749849 97.11214329 -6.625 96.25 C-10.27936461 94.32665021 -11.68658876 92.94023373 -13 89 C-13.10118403 86.42547084 -13.1468431 83.87794573 -13.14526367 81.30322266 C-13.14862228 80.52077682 -13.1519809 79.73833099 -13.15544128 78.93217468 C-13.16494845 76.34278785 -13.16689431 73.75346571 -13.16796875 71.1640625 C-13.17118162 69.36428806 -13.17454572 67.56451388 -13.17805481 65.76473999 C-13.18404558 61.99028925 -13.18589478 58.21586141 -13.18530273 54.44140625 C-13.18520114 49.60703893 -13.19885034 44.77281859 -13.21607494 39.9384861 C-13.22719888 36.22042162 -13.22922182 32.50239262 -13.22869301 28.7843132 C-13.22987264 27.00214507 -13.23429351 25.219976 -13.24202538 23.43782425 C-13.25183265 20.94363392 -13.24894428 18.44976196 -13.24291992 15.95556641 C-13.24853943 15.2208461 -13.25415894 14.48612579 -13.25994873 13.72914124 C-13.22949522 8.76244069 -12.76858261 4.89958873 -9.3125 1.1875 C-5.99060274 -0.51833914 -3.68485182 -0.45252566 0 0 Z " fill="#F40303" transform="translate(93,302)"/>
<path d="M0 0 C4.04211478 0.15483907 5.56652687 0.46967607 8.875 3.07421875 C12.16244777 7.35786281 12.06366618 10.57495206 12.06689453 15.84423828 C12.06864685 16.56173752 12.07039917 17.27923676 12.07220459 18.01847839 C12.07661004 20.39385387 12.07368784 22.76915499 12.0703125 25.14453125 C12.07098636 26.80020156 12.07195707 28.45587178 12.07321167 30.11154175 C12.07468724 33.58674051 12.07254024 37.0619136 12.06787109 40.53710938 C12.06220057 44.97196586 12.06543663 49.40676147 12.07144356 53.84161568 C12.07507581 57.26474456 12.07389793 60.68785928 12.07131577 64.11098862 C12.07065246 65.74470909 12.07145389 67.37843088 12.07379532 69.01214981 C12.09812527 90.77898392 12.09812527 90.77898392 9.4375 95.32421875 C6.2832064 97.13793757 3.84078263 97.32609206 0.25390625 97.48828125 C-3.30446821 96.3721638 -5.22230991 93.87885394 -7.0625 90.76171875 C-7.54856798 87.79891187 -7.74907519 85.41694662 -7.70947266 82.46484375 C-7.71823425 81.65430542 -7.72699585 80.84376709 -7.73602295 80.00866699 C-7.75794169 77.3424651 -7.74349189 74.67793605 -7.7265625 72.01171875 C-7.72993282 70.15136397 -7.73478724 68.29101133 -7.74105835 66.43066406 C-7.74841946 62.53689554 -7.73774887 58.64370159 -7.71435547 54.75 C-7.68586799 49.76631942 -7.70227607 44.78398521 -7.73221779 39.800354 C-7.75031146 35.96034658 -7.74452328 32.1206568 -7.73157883 28.28063965 C-7.72825053 26.44347981 -7.7323116 24.60629086 -7.74397659 22.76916504 C-7.75671979 20.198201 -7.73726202 17.62939741 -7.70947266 15.05859375 C-7.71959381 14.30412964 -7.72971497 13.54966553 -7.74014282 12.77233887 C-7.62698715 7.10323955 -5.70575458 2.10723891 0 0 Z " fill="#FB0101" transform="translate(497.0625,301.23828125)"/>
<path d="M0 0 C0.9590625 0.03673828 0.9590625 0.03673828 1.9375 0.07421875 C2.576875 0.07035156 3.21625 0.06648438 3.875 0.0625 C7.21801726 1.1958335 8.73122063 3.0351471 10.9375 5.76171875 C11.43225984 8.74820853 11.62324168 11.1631355 11.58447266 14.14453125 C11.59761505 15.39178986 11.59761505 15.39178986 11.61102295 16.66424561 C11.63298239 19.40560495 11.61847711 22.14534377 11.6015625 24.88671875 C11.60493164 26.79573882 11.60978508 28.7047568 11.61605835 30.61376953 C11.62342498 34.6118617 11.61273094 38.60939477 11.58935547 42.60742188 C11.56086778 47.72910056 11.57727288 52.84946922 11.60721779 57.97109985 C11.62529644 61.91229094 11.61953014 65.85317207 11.60657883 69.79437256 C11.60324638 71.68259842 11.60732622 73.57085255 11.61897659 75.45904541 C11.63169484 78.0997558 11.61229623 80.73835305 11.58447266 83.37890625 C11.59459381 84.15723816 11.60471497 84.93557007 11.61514282 85.73748779 C11.53639162 89.77731206 11.09980602 91.56098928 8.52597046 94.74414062 C6.01742683 96.69941994 5.04457222 97.44936134 1.9375 97.38671875 C0.9784375 97.40605469 0.9784375 97.40605469 0 97.42578125 C-3.35992137 96.34398839 -4.85794493 94.48201657 -7.0625 91.76171875 C-7.55743933 88.80898517 -7.74834467 86.43394098 -7.70947266 83.48657227 C-7.71823425 82.66642639 -7.72699585 81.84628052 -7.73602295 81.00128174 C-7.75798267 78.29718711 -7.74347578 75.59473551 -7.7265625 72.890625 C-7.72993196 71.00642077 -7.73478567 69.12221865 -7.74105835 67.23802185 C-7.74842529 63.29120162 -7.73773121 59.34494769 -7.71435547 55.39819336 C-7.68588729 50.34610873 -7.70226023 45.29535333 -7.73221779 40.2433176 C-7.75031236 36.35269717 -7.74452251 32.46239022 -7.73157883 28.57176018 C-7.72824976 26.70948058 -7.7323143 24.84717228 -7.74397659 22.98492622 C-7.75671897 20.37794102 -7.73726195 17.77308679 -7.70947266 15.16625977 C-7.71959381 14.40087387 -7.72971497 13.63548798 -7.74014282 12.84690857 C-7.62786251 7.14314881 -5.74975419 2.12348876 0 0 Z " fill="#F70202" transform="translate(395.0625,301.23828125)"/>
<path d="M0 0 C6.03551938 0.27291044 6.03551938 0.27291044 9.18359375 2.4765625 C11.96731299 6.65214136 11.81337228 10.56903721 11.82885742 15.51123047 C11.83221603 16.18492676 11.83557465 16.85862305 11.83903503 17.55273438 C11.84851587 19.77475846 11.85048672 21.99670696 11.8515625 24.21875 C11.85477715 25.76807689 11.85814138 27.31740348 11.86164856 28.86672974 C11.8676327 32.11314599 11.8694892 35.35953565 11.86889648 38.60595703 C11.86879492 42.75751625 11.88244441 46.90890423 11.89966869 51.0604229 C11.91080971 54.26039405 11.91281504 57.46032409 11.91228676 60.66031265 C11.91346381 62.19045731 11.91787011 63.72060312 11.92561913 65.25072861 C11.93546132 67.39497479 11.93252449 69.53885284 11.92651367 71.68310547 C11.92793869 72.90125946 11.92936371 74.11941345 11.93083191 75.3744812 C11.6255769 79.51316118 10.8099625 83.09332781 8.43359375 86.5390625 C5.83211733 88.30435007 3.81096271 88.60146774 0.68359375 88.7265625 C-3.02391184 87.08836236 -5.26359875 85.20227082 -7.31640625 81.7265625 C-7.71081543 78.43862915 -7.71081543 78.43862915 -7.73632812 74.48291016 C-7.74903244 73.39921394 -7.74903244 73.39921394 -7.76199341 72.29362488 C-7.78536153 69.90911169 -7.78638556 67.52524396 -7.78515625 65.140625 C-7.79225869 63.47919457 -7.79995781 61.81776659 -7.80822754 60.15634155 C-7.82167241 56.67447086 -7.82324147 53.19282689 -7.81738281 49.7109375 C-7.8114909 45.25634391 -7.84205614 40.80284181 -7.88249969 36.34845924 C-7.90839519 32.91682103 -7.91125239 29.48544483 -7.90760803 26.05372238 C-7.909298 24.41191238 -7.9189288 22.77009012 -7.93675232 21.12837601 C-7.95897738 18.82785072 -7.94922487 16.52952394 -7.93164062 14.22900391 C-7.93369507 12.92202545 -7.93574951 11.615047 -7.93786621 10.26846313 C-7.10200138 5.50460006 -4.91758065 1.54244519 0 0 Z " fill="#F30303" transform="translate(36.31640625,310.2734375)"/>
<path d="M0 0 C2.19439602 1.52217197 2.19439602 1.52217197 4 4 C4.39488282 6.94391621 4.54476307 9.51409843 4.5146637 12.45774841 C4.52508199 13.75002754 4.52508199 13.75002754 4.53571075 15.06841332 C4.55403379 17.96050298 4.54370174 20.85177725 4.53344727 23.74389648 C4.54050306 25.81517147 4.54924664 27.88644129 4.55955505 29.95770264 C4.582097 35.58787139 4.57909801 41.21775967 4.57023358 46.84795642 C4.56513101 51.54497573 4.57241033 56.24194199 4.57970566 60.93895584 C4.59672001 72.01802599 4.59312338 83.09695846 4.57641602 94.17602539 C4.55949213 105.61301208 4.57532965 117.04961718 4.6076389 128.48656219 C4.63431298 138.29983201 4.64161671 148.11298289 4.63312382 157.92628533 C4.62818837 163.79003336 4.63044371 169.65355172 4.65091133 175.51727104 C4.66923408 181.03068412 4.66335113 186.54354722 4.63871193 192.05693054 C4.63369327 194.08181545 4.637221 196.10674202 4.64986038 198.1315937 C4.66573796 200.89345498 4.65089047 203.65349347 4.62818909 206.41526794 C4.64594268 207.62081405 4.64594268 207.62081405 4.66405493 208.85071462 C4.59567013 212.93818286 4.19456778 214.76109178 1.57792568 217.97404575 C-2.2724501 221 -2.2724501 221 -5 221 C-11.49253731 218.76119403 -11.49253731 218.76119403 -14 215 C-14.20027436 212.20081524 -14.28255551 209.50048182 -14.27415466 206.70046997 C-14.28200968 205.41559781 -14.28200968 205.41559781 -14.29002339 204.10476863 C-14.30507067 201.22360762 -14.30572957 198.34262345 -14.30639648 195.46142578 C-14.31401477 193.40015359 -14.32244169 191.33888425 -14.33161926 189.27761841 C-14.3536032 183.67019571 -14.36236834 178.06282755 -14.36744571 172.45536661 C-14.37108453 168.95418427 -14.37732209 165.45301632 -14.3844471 161.95183945 C-14.40895464 149.74343994 -14.42199642 137.53508301 -14.42553711 125.32666016 C-14.42917391 113.93686533 -14.45907643 102.54733973 -14.50094169 91.15762722 C-14.53560044 81.38685939 -14.55108478 71.61618097 -14.55178314 61.84535205 C-14.55257743 56.00615498 -14.5613859 50.16723201 -14.58978081 44.3280983 C-14.61588584 38.83689622 -14.61820887 33.34619699 -14.60212517 27.8549614 C-14.60030468 25.83812619 -14.60705521 23.82126257 -14.62294388 21.80448914 C-14.64329728 19.05355811 -14.63291634 16.30440423 -14.61473083 13.55349731 C-14.6279308 12.75300874 -14.64113077 11.95252016 -14.65473074 11.12777436 C-14.59306318 7.0512781 -14.19132101 5.23560913 -11.58657932 2.02790642 C-7.3035679 -1.33002128 -5.34514517 -1.19804978 0 0 Z M-10 4 C-10.66 4 -11.32 4 -12 4 C-12.09336364 31.44186656 -12.16394013 58.88370938 -12.20724869 86.32570267 C-12.2278904 99.06696119 -12.25604182 111.80812114 -12.30175781 124.54931641 C-12.34157622 135.65210908 -12.36742109 146.75483039 -12.37635398 157.85769248 C-12.38157717 163.73879819 -12.39388713 169.61969968 -12.42292023 175.50074005 C-12.45001028 181.0328579 -12.45845793 186.56468682 -12.45243073 192.0968647 C-12.45353383 194.13024781 -12.46152565 196.16364029 -12.4768219 198.19696617 C-12.49664944 200.96787097 -12.49196568 203.73767708 -12.48101807 206.50860596 C-12.49266943 207.31794468 -12.5043208 208.12728341 -12.51632524 208.96114755 C-12.47820082 212.51768385 -12.29115636 214.59917448 -10.17306137 217.51508713 C-7.32855598 219.45881625 -5.37139651 219.30649059 -2 219 C-2 218.34 -2 217.68 -2 217 C-0.68 216.67 0.64 216.34 2 216 C2.0466714 188.41045311 2.08196497 160.82091211 2.10362434 133.23133373 C2.1139474 120.42170583 2.12802736 107.61210242 2.15087891 94.80249023 C2.17078132 83.64074399 2.18370894 72.47901548 2.18817699 61.31725198 C2.19078972 55.4043876 2.19695206 49.49157397 2.21146011 43.57872581 C2.2249943 38.01794125 2.2292311 32.45722853 2.22621536 26.89642906 C2.2267674 24.85135 2.23076953 22.80626863 2.23841095 20.76120377 C2.24830707 17.97708088 2.24598846 15.19323213 2.24050903 12.40910339 C2.24924756 11.18488962 2.24924756 11.18488962 2.25816262 9.93594426 C2.23759433 6.09070373 2.18464818 4.27697227 0 1 C-1.901994 0.52441794 -1.901994 0.52441794 -4 0.625 C-5.051875 0.61339844 -5.051875 0.61339844 -6.125 0.6015625 C-8.41058594 0.859086 -8.41058594 0.859086 -10 4 Z " fill="#C91312" transform="translate(479,178)"/>
<path d="M0 0 C0.639375 -0.00386719 1.27875 -0.00773437 1.9375 -0.01171875 C5.23855009 1.10738725 6.79658241 3.02676511 9 5.6875 C9.64697266 9.11328125 9.64697266 9.11328125 9.6640625 13 C9.66884613 13.69134033 9.67362976 14.38268066 9.67855835 15.0949707 C9.68194736 16.55064176 9.6728145 18.00638996 9.65185547 19.46191406 C9.62506546 21.68207497 9.65162647 23.89718261 9.68359375 26.1171875 C9.68028946 27.53646942 9.67388281 28.95574821 9.6640625 30.375 C9.65842285 31.65761719 9.6527832 32.94023437 9.64697266 34.26171875 C8.84190595 38.52462293 7.33549309 40.0054579 4 42.6875 C0.97351665 43.59488141 -0.7496807 43.15183133 -4 42.6875 C-6.43119623 40.81734906 -7.64069173 39.40611655 -9 36.6875 C-9.2813093 32.4785431 -9.31367563 28.26590783 -9.35009766 24.04882812 C-9.36661675 22.64826799 -9.3938542 21.24779075 -9.43212891 19.84765625 C-9.78869951 6.72585797 -9.78869951 6.72585797 -6.7265625 2.77734375 C-2.95533734 -0.11320849 -2.95533734 -0.11320849 0 0 Z " fill="#EF0505" transform="translate(64,355.3125)"/>
<path d="M0 0 C2.4375 1.9375 2.4375 1.9375 4 4 C4 4.66 4 5.32 4 6 C3.34 6 2.68 6 2 6 C1.67 5.01 1.34 4.02 1 3 C-1.84083641 1.57958179 -3.85477278 1.68547728 -7 2 C-9.34017573 3.40929783 -9.34017573 3.40929783 -11 6 C-11.38415717 9.0536394 -11.52332905 11.74301989 -11.48101807 14.79510498 C-11.48443577 15.69282065 -11.48785347 16.59053631 -11.49137473 17.51545548 C-11.49797432 20.52983208 -11.47594307 23.54332234 -11.45410156 26.55761719 C-11.45297354 28.71581501 -11.45360607 30.87401437 -11.45587158 33.0322113 C-11.4570214 38.89762375 -11.43346856 44.7627104 -11.40557575 50.62804699 C-11.38060677 56.75529018 -11.37822365 62.88254045 -11.37347412 69.00982666 C-11.36103112 80.61557813 -11.32819148 92.22117927 -11.28807616 103.82686448 C-11.24339974 117.03829291 -11.22138179 130.24972845 -11.20129442 143.46121359 C-11.15946009 170.64089247 -11.08908221 197.82043782 -11 225 C-13.78157629 222.61300882 -13.98040477 222.19352811 -14.37752342 218.27147102 C-14.39409074 216.67196166 -14.39387434 215.07222972 -14.38095093 213.47268677 C-14.3856309 212.59160401 -14.39031087 211.71052126 -14.39513266 210.80273902 C-14.4071368 207.83855621 -14.39760423 204.87483111 -14.38818359 201.91064453 C-14.39224695 199.7902601 -14.39758749 197.66987779 -14.40411377 195.54949951 C-14.41782293 189.78087784 -14.41247341 184.01241663 -14.40297651 178.24379206 C-14.39539657 172.21362014 -14.40242107 166.18346223 -14.40713501 160.15328979 C-14.41259826 150.02322923 -14.40538688 139.89323421 -14.39111328 129.76318359 C-14.37479452 118.04626301 -14.38006742 106.32949909 -14.3965925 94.61258233 C-14.41020163 84.56155782 -14.41212955 74.51058052 -14.40427649 64.45954978 C-14.39959571 58.45276501 -14.39898611 52.44605389 -14.40888596 46.43927383 C-14.41754466 40.79056459 -14.4115536 35.14205744 -14.39420319 29.49337006 C-14.39023212 27.41849732 -14.39138294 25.34360762 -14.39799118 23.26874161 C-14.40617238 20.43935734 -14.39592628 17.61062322 -14.38095093 14.78128052 C-14.38764309 13.95744625 -14.39433526 13.13361199 -14.40123022 12.28481305 C-14.35382603 7.67652368 -13.85702215 4.6706531 -11 1 C-7.44544736 -1.79286279 -4.2131487 -1.05328717 0 0 Z " fill="#C91210" transform="translate(171,170)"/>
<path d="M0 0 C3.16244234 2.41344284 4.34050042 4.14548318 5 8 C5.09195654 10.72541424 5.13050589 13.42459874 5.12025452 16.14971924 C5.12110894 16.97801451 5.12196337 17.80630979 5.12284368 18.65970492 C5.12449254 21.43884863 5.1189868 24.21793215 5.11352539 26.99707031 C5.11324336 28.98778278 5.11340155 30.97849536 5.1139679 32.96920776 C5.11425527 38.37789839 5.10836819 43.78656693 5.10139394 49.19525242 C5.09515045 54.84604849 5.09455581 60.49684505 5.09336853 66.14764404 C5.09025816 76.85022105 5.08204871 87.55278785 5.07201904 98.25536036 C5.0608488 110.43901681 5.05534515 122.62267373 5.05032361 134.80633402 C5.03986587 159.870895 5.02227209 184.93544693 5 210 C4.67 210 4.34 210 4 210 C3.99668985 208.96963057 3.99337971 207.93926113 3.98996925 206.87766838 C3.90900115 181.81487525 3.81669358 156.75214348 3.71247292 131.68943596 C3.66233569 119.56933735 3.61589285 107.44924555 3.578125 95.32910156 C3.54519999 84.76608247 3.50536588 74.203116 3.45720994 63.64015496 C3.4319501 58.0463592 3.41016722 52.45259833 3.39665604 46.85876083 C3.38383113 41.59422412 3.36177186 36.32980705 3.33261681 31.06533623 C3.32354444 29.13280086 3.31785159 27.20024622 3.31578636 25.26769066 C3.31246146 22.62907931 3.2969777 19.99080668 3.2784729 17.3522644 C3.28040763 16.58766085 3.28234237 15.82305729 3.28433573 15.03528392 C3.23851266 10.66437142 2.75352077 7.02203762 1 3 C-1.79870027 1.60064987 -3.90498792 1.74734595 -7 2 C-8.7511573 3.4166747 -8.7511573 3.4166747 -10 5 C-10.66 5 -11.32 5 -12 5 C-12.33 75.29 -12.66 145.58 -13 218 C-13.33 218 -13.66 218 -14 218 C-14.0700538 190.59265992 -14.12297041 163.18533323 -14.15543652 135.77792168 C-14.17091117 123.05243819 -14.19201219 110.3270103 -14.22631836 97.6015625 C-14.25620231 86.5112028 -14.27557065 75.42088336 -14.28226548 64.33048451 C-14.28617942 58.457179 -14.29539031 52.58398869 -14.31719017 46.71072006 C-14.33753935 41.18355398 -14.34383692 35.65655065 -14.33932304 30.12935066 C-14.34014894 28.10003971 -14.34612385 26.07072336 -14.35761642 24.04144478 C-14.37253586 21.27139726 -14.36895551 18.50196474 -14.36076355 15.73190308 C-14.36950207 14.92839003 -14.3782406 14.12487699 -14.38724393 13.29701507 C-14.34861921 8.46698839 -13.6246035 5.20792694 -11 1 C-7.51811815 -1.86011723 -4.17847912 -1.04461978 0 0 Z " fill="#BF1212" transform="translate(299,174)"/>
<path d="M0 0 C0.66 0.33 1.32 0.66 2 1 C1.01 2.485 1.01 2.485 0 4 C-0.30597297 6.90423924 -0.30597297 6.90423924 -0.26069641 10.26293945 C-0.26778122 11.575336 -0.27486603 12.88773254 -0.28216553 14.23989868 C-0.27987163 15.69769321 -0.27736192 17.15548742 -0.2746582 18.61328125 C-0.27900451 20.145785 -0.28418738 21.67828658 -0.29014587 23.21078491 C-0.30355484 27.37598953 -0.30411252 31.54110353 -0.30158257 35.70632553 C-0.30051431 39.18068965 -0.30539244 42.65503531 -0.310188 46.12939548 C-0.3212894 54.32358233 -0.3217168 62.51772333 -0.31567383 70.71191406 C-0.3096302 79.17289636 -0.32195342 87.63371253 -0.3432439 96.09466648 C-0.3608392 103.3533233 -0.3668646 110.61192714 -0.36360615 117.87060452 C-0.36179009 122.20842949 -0.36446167 126.54613593 -0.37832069 130.88394165 C-0.3908611 134.96169305 -0.38899114 139.03918468 -0.37590981 143.11693192 C-0.3735363 144.61535351 -0.37630629 146.11379317 -0.38453293 147.61219406 C-0.39493561 149.65379261 -0.38513344 151.69546465 -0.3742218 153.73706055 C-0.37438954 154.88079636 -0.37455729 156.02453217 -0.37473011 157.20292664 C-0.22579293 160.01134702 -0.22579293 160.01134702 1.39838886 161.90705872 C2.95680776 163.22943436 2.95680776 163.22943436 5 162.75 C5.66 162.5025 6.32 162.255 7 162 C7.99 161.67 8.98 161.34 10 161 C10.99 161.66 11.98 162.32 13 163 C9.85543449 165.09637701 7.83905324 165.36556445 4.1328125 165.65625 C1.40386183 164.81657287 -0.15440336 163.43972912 -1.92076111 161.22255325 C-4.44663159 156.02084888 -3.66994105 149.81786231 -3.61523438 144.15380859 C-3.61873763 142.63233319 -3.62439852 141.11086145 -3.63204956 139.58940125 C-3.6462757 135.46747433 -3.62925928 131.34621623 -3.60576439 127.22435331 C-3.58563582 122.90873705 -3.59153586 118.59314801 -3.59387207 114.27749634 C-3.59381853 107.03286728 -3.57407879 99.78849934 -3.54199219 92.54394531 C-3.50507294 84.16753239 -3.49632077 75.7914611 -3.5032897 67.41497743 C-3.5095931 59.35463432 -3.49884524 51.29440837 -3.47932434 43.2340889 C-3.47114853 39.80434119 -3.46844111 36.37465334 -3.47001648 32.9448967 C-3.47089495 28.90809226 -3.45668957 24.87161287 -3.43078995 20.83489418 C-3.42362419 19.35303256 -3.4215465 17.87113638 -3.42490768 16.38926125 C-3.42861837 14.36783291 -3.41204298 12.34639755 -3.39440918 10.32504272 C-3.39068047 9.19349951 -3.38695175 8.06195629 -3.38311005 6.89612389 C-2.96196601 3.71248171 -2.14752344 2.33578447 0 0 Z " fill="#CA1211" transform="translate(186,233)"/>
<path d="M0 0 C3.72615491 0.13800574 6.18111473 0.38352324 9.19565773 2.65294456 C11.56725937 5.73788061 11.49813776 7.55825071 11.49447632 11.42788696 C11.49930515 12.07101125 11.50413398 12.71413554 11.50910914 13.37674844 C11.52037275 15.52973761 11.50306866 17.681537 11.48583984 19.83447266 C11.48798588 21.37859926 11.49186382 22.92272429 11.49734497 24.46684265 C11.50704045 28.65891421 11.49173392 32.85056005 11.47143888 37.04258013 C11.45387987 41.42587333 11.4573927 45.80915316 11.4581604 50.19247437 C11.45628732 57.55156588 11.43892042 64.91049245 11.41162109 72.26953125 C11.38014686 80.78563129 11.36962569 89.3015508 11.3710922 97.8177048 C11.37231151 106.00297026 11.36211362 114.18817676 11.34550858 122.37342453 C11.33843582 125.86063471 11.33478108 129.34782404 11.33372116 132.83504105 C11.33171678 136.93740544 11.31954423 141.0396174 11.29938889 145.14193153 C11.29353198 146.65043899 11.29108954 148.15896399 11.29224396 149.66748238 C11.29322073 151.72036479 11.28071141 153.77324066 11.26742554 155.82608032 C11.26407385 156.97681345 11.26072216 158.12754658 11.25726891 159.31315041 C11 162 11 162 9 164 C8.67 111.2 8.34 58.4 8 4 C4.7 3.34 1.4 2.68 -2 2 C-1.34 1.34 -0.68 0.68 0 0 Z " fill="#CD1312" transform="translate(190,231)"/>
<path d="M0 0 C0.33 0 0.66 0 1 0 C1 98.01 1 196.02 1 297 C0.67 297 0.34 297 0 297 C0 198.99 0 100.98 0 0 Z " fill="#853322" transform="translate(0,98)"/>
<path d="M0 0 C0.33 0 0.66 0 1 0 C1 69.3 1 138.6 1 210 C1.66 210 2.32 210 3 210 C3 210.99 3 211.98 3 213 C6.0745356 212.2236068 6.0745356 212.2236068 8 210 C8.99 210.66 9.98 211.32 11 212 C11 212.66 11 213.32 11 214 C14.12474627 212.36526484 14.12474627 212.36526484 14.6875 209.875 C14.790625 209.25625 14.89375 208.6375 15 208 C15.66 208 16.32 208 17 208 C16.49905154 211.70701864 15.97475872 213.66843235 13 216 C10.87890625 216.43359375 10.87890625 216.43359375 8.5625 216.4375 C7.80066406 216.45683594 7.03882813 216.47617187 6.25390625 216.49609375 C3.00993675 215.78208313 2.00358718 214.6535825 0 212 C-0.38419402 209.0314018 -0.52352277 206.43734021 -0.48101807 203.47064209 C-0.48443577 202.60151129 -0.48785347 201.73238049 -0.49137473 200.83691239 C-0.49797299 197.91926166 -0.47594544 195.00252717 -0.45410156 192.08496094 C-0.45297351 189.99572776 -0.45360613 187.906493 -0.45587158 185.81726074 C-0.45702128 180.13985437 -0.43347032 174.46278465 -0.40557575 168.78545666 C-0.38060486 162.85440455 -0.3782235 156.9233451 -0.37347412 150.99224854 C-0.36103168 139.75836232 -0.32819281 128.52463144 -0.28807616 117.29081368 C-0.24339799 104.50259435 -0.22138135 91.71436769 -0.20129442 78.92608976 C-0.15946137 52.61730699 -0.08908458 26.30866219 0 0 Z " fill="#E30B0B" transform="translate(286,182)"/>
<path d="M0 0 C0.625 1.875 0.625 1.875 1 4 C0.34 4.66 -0.32 5.32 -1 6 C-1.30624435 7.94711503 -1.30624435 7.94711503 -1.26171303 10.21290779 C-1.26917852 11.10167236 -1.27664401 11.99043694 -1.28433573 12.90613377 C-1.282401 13.88860896 -1.28046626 14.87108414 -1.2784729 15.8833313 C-1.2842653 16.92226245 -1.2900577 17.9611936 -1.29602563 19.03160751 C-1.31311913 22.5355882 -1.31591016 26.03943793 -1.31884766 29.54345703 C-1.32813938 32.04618659 -1.33830691 34.54891303 -1.34928894 37.05163574 C-1.37100285 42.45149986 -1.38658781 47.85132709 -1.39665604 53.25122452 C-1.4112236 61.05861643 -1.43675493 68.86594197 -1.46498732 76.67329501 C-1.51049037 89.33930803 -1.54709062 102.00533059 -1.578125 114.67138672 C-1.60829618 126.97739335 -1.64263984 139.28337662 -1.68261719 151.58935547 C-1.68507874 152.3475269 -1.68754028 153.10569833 -1.69007643 153.88684465 C-1.70245075 157.69025771 -1.71490734 161.49367049 -1.72740483 165.29708314 C-1.8310252 196.86469043 -1.92006328 228.43232343 -2 260 C-2.33 260 -2.66 260 -3 260 C-3.06862109 227.31079648 -3.12150586 194.6216116 -3.15319599 161.93235252 C-3.15694825 158.07575117 -3.1608312 154.21914997 -3.16479492 150.36254883 C-3.16558185 149.59474776 -3.16636878 148.8269467 -3.16717956 148.03587893 C-3.18024431 135.59305344 -3.20390401 123.15026941 -3.23145839 110.70746853 C-3.2594829 97.94622659 -3.27616999 85.18500641 -3.28226548 72.42373496 C-3.28638808 64.54517927 -3.29942303 56.66674074 -3.3237494 48.7882211 C-3.34143661 42.75362124 -3.34337312 36.71912281 -3.33932304 30.68449402 C-3.34015147 28.20402109 -3.34615959 25.72354391 -3.35761642 23.24309731 C-3.372448 19.86772444 -3.36898763 16.49286101 -3.36076355 13.11747742 C-3.36950207 12.12624223 -3.3782406 11.13500704 -3.38724393 10.11373442 C-3.38127078 9.21252862 -3.37529764 8.31132281 -3.36914349 7.38280773 C-3.37028265 6.60324189 -3.37142181 5.82367606 -3.37259549 5.02048701 C-2.9082404 2.5024119 -1.9379401 1.60878399 0 0 Z " fill="#E50A0B" transform="translate(417,129)"/>
<path d="M0 0 C0.66 0.33 1.32 0.66 2 1 C2.901678 3.705034 3.12794016 5.2646081 3.13701439 8.04087639 C3.14208893 8.8658474 3.14716347 9.6908184 3.15239179 10.54078853 C3.15288955 11.44690321 3.15338731 12.35301788 3.15390015 13.28659058 C3.1582824 14.24934438 3.16266465 15.21209818 3.1671797 16.20402634 C3.18058199 19.4444505 3.18674973 22.68484745 3.19287109 25.92529297 C3.20077076 28.24271773 3.20903963 30.56014125 3.21765137 32.87756348 C3.24388119 40.49909285 3.25917727 48.12062775 3.2734375 55.7421875 C3.27879627 58.36308928 3.28417378 60.98399103 3.28956985 63.60489273 C3.31119756 74.50294735 3.33008761 85.40099966 3.34119225 96.29907036 C3.34412195 99.12662637 3.34708362 101.95418235 3.35009766 104.78173828 C3.35084371 105.48451531 3.35158976 106.18729234 3.35235842 106.91136564 C3.36501846 118.30189296 3.39825141 129.69226442 3.43989949 141.08271883 C3.48230145 152.77508023 3.5054773 164.46735349 3.51111281 176.15979111 C3.51477314 182.7255759 3.52686758 189.29109628 3.55921555 195.85680771 C3.5891984 202.03086169 3.5956428 208.20448991 3.58383179 214.37860107 C3.58361025 216.64700021 3.59198093 218.91541855 3.60948563 221.18375015 C3.63205472 224.27616544 3.62393869 227.36702073 3.60800171 230.45944214 C3.6218838 231.36109537 3.63576588 232.2627486 3.65006864 233.19172466 C3.59661084 237.38962381 3.50225289 240.02398382 0.46199989 243.09628487 C-0.35046007 243.72451086 -1.16292004 244.35273685 -2 245 C-2 243.68 -2 242.36 -2 241 C-1.01 241 -0.02 241 1 241 C1.02280754 211.02010579 1.04050707 181.04021187 1.05106533 151.06031086 C1.05231605 147.52173392 1.05361037 143.98315699 1.05493164 140.44458008 C1.05519395 139.74010654 1.05545626 139.03563301 1.05572652 138.30981179 C1.06007904 126.89976775 1.06796431 115.48972875 1.0771528 104.07968769 C1.08650093 92.37386541 1.09205807 80.66804576 1.09408849 68.96221989 C1.09539401 62.3864376 1.09846985 55.81066672 1.10573006 49.23488808 C1.11250497 43.04868081 1.11461394 36.86248969 1.11310768 30.67627907 C1.11338334 28.40306002 1.11537975 26.12984045 1.11920547 23.8566246 C1.12416563 20.75797816 1.12298963 17.65939305 1.12025452 14.56074524 C1.12316736 13.65704565 1.1260802 12.75334606 1.12908131 11.82226163 C1.11933369 7.7488414 1.02854069 3.9732263 0 0 Z " fill="#CA120D" transform="translate(147,152)"/>
<path d="M0 0 C1.19109375 -0.03867187 1.19109375 -0.03867187 2.40625 -0.078125 C3.0971875 0.03015625 3.788125 0.1384375 4.5 0.25 C5.16 1.24 5.82 2.23 6.5 3.25 C5.59507812 3.07210938 5.59507812 3.07210938 4.671875 2.890625 C3.87265625 2.76171875 3.0734375 2.6328125 2.25 2.5 C1.46109375 2.36078125 0.6721875 2.2215625 -0.140625 2.078125 C-2.60145931 2.05802775 -2.60145931 2.05802775 -4.61610413 3.70176697 C-7.38054184 7.44105617 -7.05331109 10.65398906 -7.00170898 15.19360352 C-7.00711197 16.09645081 -7.01251495 16.9992981 -7.01808167 17.92950439 C-7.03058632 20.91297207 -7.01406758 23.89547812 -6.99609375 26.87890625 C-6.99624868 28.95108592 -6.99773673 31.02326589 -7.00050354 33.09544373 C-7.00188827 37.43737606 -6.98931587 41.77897835 -6.96655273 46.12084961 C-6.93815035 51.69199268 -6.94090932 57.26258799 -6.95364285 62.83377171 C-6.9605903 67.11196082 -6.95282171 71.39002284 -6.94038582 75.66819572 C-6.93586348 77.72274221 -6.93554132 79.77730231 -6.93945122 81.83185005 C-6.94235471 84.70011606 -6.92589834 87.56762106 -6.90405273 90.43579102 C-6.90855438 91.28833969 -6.91305603 92.14088837 -6.91769409 93.01927185 C-6.99959207 97.29063377 -6.99959207 97.29063377 -5.11248875 100.94856167 C-3.2662672 102.43864555 -1.81783657 102.850373 0.5 103.25 C0.5 102.59 0.5 101.93 0.5 101.25 C1.985 100.755 1.985 100.755 3.5 100.25 C4.49 100.91 5.48 101.57 6.5 102.25 C3.35543449 104.34637701 1.33905324 104.61556445 -2.3671875 104.90625 C-5.84378186 103.83652866 -7.73984321 101.29783246 -9.5 98.25 C-10.1959557 95.22390967 -10.16463803 92.29764301 -10.11523438 89.20288086 C-10.12078339 88.31270767 -10.1263324 87.42253448 -10.13204956 86.50538635 C-10.14382212 83.57465104 -10.11959684 80.64546998 -10.09375 77.71484375 C-10.09203833 75.6727353 -10.09210515 73.63062464 -10.09387207 71.58851624 C-10.09222024 67.31392323 -10.07354547 63.03985555 -10.04199219 58.76538086 C-10.00229014 53.28863555 -9.99795077 47.81257723 -10.00545502 42.33571529 C-10.00852547 38.12091284 -9.99640185 33.9062646 -9.97932434 29.69149971 C-9.97229812 27.67210419 -9.96916935 25.65269119 -9.97001648 23.63328362 C-9.96821722 20.8111096 -9.94682503 17.98975652 -9.91992188 15.16772461 C-9.92285248 14.33485931 -9.92578308 13.50199402 -9.92880249 12.64389038 C-9.86109687 8.03681395 -9.48504014 4.99380717 -6.5 1.25 C-4.15897141 0.07948571 -2.60647047 0.0507754 0 0 Z " fill="#C91311" transform="translate(320.5,293.75)"/>
<path d="M0 0 C0.33 0 0.66 0 1 0 C1.00586624 1.08328079 1.01173248 2.16656158 1.01777649 3.28266907 C1.07493262 13.48016974 1.14765675 23.6774557 1.23571491 33.87473774 C1.28048627 39.11756676 1.31972739 44.36031686 1.34643555 49.60327148 C1.37240113 54.66085537 1.41275538 59.71813662 1.46318626 64.77553368 C1.47990074 66.70723907 1.4913864 68.63899687 1.49761391 70.57076454 C1.50720534 73.27186612 1.53520437 75.97218537 1.56762695 78.6730957 C1.56619186 79.47582413 1.56475677 80.27855255 1.5632782 81.10560608 C1.6107678 85.28688126 1.6107678 85.28688126 3.33952332 88.99699402 C5.96881557 90.58521015 8.00815164 90.37398104 11 90 C12.7511573 88.5833253 12.7511573 88.5833253 14 87 C14.66 87 15.32 87 16 87 C15.67 84.69 15.34 82.38 15 80 C15.99 80 16.98 80 18 80 C17.5144357 87.28346457 17.5144357 87.28346457 15.25 90.4375 C12.6748213 92.22581854 11.13094444 92.847271 8 93 C3.49225889 91.90055095 1.47534197 89.86327851 -1 86 C-1.37218263 83.11807343 -1.51814813 80.62779834 -1.4699707 77.75317383 C-1.4721611 76.93635635 -1.4743515 76.11953888 -1.47660828 75.27796936 C-1.47891355 72.58724015 -1.452701 69.89761391 -1.42578125 67.20703125 C-1.42085662 65.33567146 -1.41755821 63.46430674 -1.41581726 61.59294128 C-1.4081842 57.67646487 -1.38764109 53.76035481 -1.35668945 49.84399414 C-1.31703306 44.81660364 -1.29906681 39.78945099 -1.28938007 34.76192188 C-1.2794227 29.97275929 -1.25952763 25.1836551 -1.23828125 20.39453125 C-1.23318763 19.01870849 -1.23318763 19.01870849 -1.2279911 17.61509132 C-1.21645038 15.0295371 -1.19793667 12.44413572 -1.17700195 9.85864258 C-1.17431305 9.08822632 -1.17162415 8.31781006 -1.16885376 7.52404785 C-1.11491518 2.22983037 -1.11491518 2.22983037 0 0 Z " fill="#C91211" transform="translate(542,306)"/>
<path d="M0 0 C2.625 1.625 2.625 1.625 4 4 C4.44446332 7.11124322 4.67856154 9.02471155 2.84765625 11.65625 C0.21889306 13.56807777 -1.78056352 13.43355461 -5 13.4375 C-6.5778125 13.46650391 -6.5778125 13.46650391 -8.1875 13.49609375 C-11 13 -11 13 -12.8828125 11.19921875 C-14.57503493 7.86802564 -13.91617936 5.53383467 -13 2 C-8.7606692 -0.82622053 -4.97675272 -0.65162065 0 0 Z " fill="#E70707" transform="translate(274,385)"/>
<path d="M0 0 C0.33 0 0.66 0 1 0 C1.09335788 22.11339391 1.16393724 44.22675542 1.20724869 66.34030628 C1.22789167 76.60755302 1.25604536 86.87467746 1.30175781 97.1418457 C1.34157251 106.08860866 1.36742018 115.03528306 1.37635398 123.98213214 C1.38157785 128.72136721 1.39389167 133.46034892 1.42292023 138.19950294 C1.45000465 142.65724051 1.45845921 147.11461954 1.45243073 151.57243156 C1.4535341 153.21116202 1.46152955 154.84990407 1.4768219 156.48856354 C1.49664172 158.72128028 1.49196987 160.95263258 1.48101807 163.18537903 C1.48470524 164.43625211 1.48839241 165.68712519 1.49219131 166.97590351 C1 170 1 170 -1.03006363 171.92591381 C-2.00518213 172.45758647 -2.00518213 172.45758647 -3 173 C-2.505 171.02 -2.505 171.02 -2 169 C-1.34 169 -0.68 169 0 169 C0 113.23 0 57.46 0 0 Z " fill="#CF1212" transform="translate(251,224)"/>
<path d="M0 0 C2.2477975 2.05233685 3.0022242 3.00667261 4 6 C4.09518512 8.3593145 4.12794787 10.72128617 4.12939453 13.08251953 C4.13114685 13.80001877 4.13289917 14.51751801 4.13470459 15.25675964 C4.13911004 17.63213512 4.13618784 20.00743624 4.1328125 22.3828125 C4.13348636 24.03848281 4.13445707 25.69415303 4.13571167 27.349823 C4.13718724 30.82502176 4.13504024 34.30019485 4.13037109 37.77539062 C4.12470057 42.21024711 4.12793663 46.64504272 4.13394356 51.07989693 C4.13757581 54.50302581 4.13639793 57.92614053 4.13381577 61.34926987 C4.13315246 62.98299034 4.13395389 64.61671213 4.13629532 66.25043106 C4.14520869 74.22479673 4.13551371 82.08748791 3 90 C2.67 90 2.34 90 2 90 C1.98969254 88.97571396 1.97938507 87.95142792 1.96876526 86.89610291 C1.87088786 77.22971943 1.76814067 67.56339827 1.66066074 57.89711666 C1.60556369 52.92793355 1.55216533 47.95874443 1.50268555 42.98950195 C1.45484641 38.19136699 1.40249749 33.39330024 1.34705925 28.59524727 C1.32672398 26.76730619 1.30799681 24.93934647 1.29092598 23.11137199 C1.26668544 20.54545252 1.23665928 17.97965966 1.20532227 15.41381836 C1.1995668 14.66287399 1.19381134 13.91192963 1.18788147 13.13822937 C1.12594808 8.65876322 0.72216751 4.40880244 0 0 Z " fill="#C51208" transform="translate(505,304)"/>
<path d="M0 0 C0.7940625 -0.01675781 1.588125 -0.03351563 2.40625 -0.05078125 C3.0971875 0.06910156 3.788125 0.18898438 4.5 0.3125 C5.16 1.3025 5.82 2.2925 6.5 3.3125 C2.87 2.9825 -0.76 2.6525 -4.5 2.3125 C-4.809375 3.281875 -5.11875 4.25125 -5.4375 5.25 C-6.5 8.3125 -6.5 8.3125 -7.5 9.3125 C-7.60819148 10.93165924 -7.6468479 12.55550788 -7.65821838 14.17823792 C-7.6680072 15.23138184 -7.67779602 16.28452576 -7.68788147 17.36958313 C-7.69363693 18.53483017 -7.6993924 19.70007721 -7.70532227 20.90063477 C-7.71522186 22.11997711 -7.72512146 23.33931946 -7.73532104 24.59561157 C-7.76157179 27.94874606 -7.7834077 31.30185593 -7.80332303 34.65503049 C-7.82514477 38.15578389 -7.85255205 41.65649333 -7.87937927 45.1572113 C-7.92935787 51.79056466 -7.97427745 58.42394235 -8.01740164 65.05734342 C-8.06672995 72.60743329 -8.12166437 80.15747907 -8.17708123 87.70752633 C-8.29098056 103.24247683 -8.39780219 118.77746784 -8.5 134.3125 C-8.83 134.3125 -9.16 134.3125 -9.5 134.3125 C-9.57008969 117.84013139 -9.62298793 101.36781118 -9.65543652 84.89532948 C-9.6709036 77.24681932 -9.69199003 69.59840184 -9.72631836 61.94995117 C-9.75622564 55.28334274 -9.77557616 48.61680143 -9.78226548 41.95012778 C-9.78617552 38.42034483 -9.79536114 34.89075388 -9.81719017 31.36103249 C-9.84136448 27.42009515 -9.84196913 23.47934544 -9.84057617 19.53833008 C-9.851362 18.36876266 -9.86214783 17.19919525 -9.8732605 15.9941864 C-9.86707451 14.38098007 -9.86707451 14.38098007 -9.86076355 12.73518372 C-9.86352893 11.80325101 -9.86629431 10.8713183 -9.86914349 9.91114521 C-9.03288075 4.02413856 -5.99468935 0.02919492 0 0 Z " fill="#C61213" transform="translate(345.5,256.6875)"/>
<path d="M0 0 C5.60980903 0.43402778 5.60980903 0.43402778 7.83203125 2.65625 C6.78015625 2.553125 5.72828125 2.45 4.64453125 2.34375 C-0.08286977 2.73124189 -1.12766017 4.18161163 -4.16796875 7.65625 C-4.82796875 7.65625 -5.48796875 7.65625 -6.16796875 7.65625 C-6.16796875 35.04625 -6.16796875 62.43625 -6.16796875 90.65625 C-6.49796875 90.65625 -6.82796875 90.65625 -7.16796875 90.65625 C-7.28389512 79.80774965 -7.37270078 68.95939701 -7.42702961 58.11040306 C-7.45310686 53.07256544 -7.48847087 48.03515206 -7.54516602 42.99755859 C-7.59955235 38.13459742 -7.62940338 33.2720439 -7.64235497 28.40880203 C-7.65158295 26.55483204 -7.66960341 24.70088398 -7.69661903 22.84708786 C-7.73299814 20.24701746 -7.73791052 17.64862442 -7.7355957 15.04833984 C-7.75357208 14.28444946 -7.77154846 13.52055908 -7.79006958 12.73352051 C-7.75202357 8.77556505 -7.21225232 6.2252877 -4.76799011 3.17276001 C-2.16796875 0.65625 -2.16796875 0.65625 0 0 Z " fill="#C70E11" transform="translate(497.16796875,301.34375)"/>
<path d="M0 0 C0.33 0 0.66 0 1 0 C1.01030746 1.03094788 1.02061493 2.06189575 1.03123474 3.12408447 C1.1289531 12.83555267 1.23168577 22.54695656 1.33933926 32.25831985 C1.39452462 37.25112971 1.44793766 42.24394546 1.49731445 47.23681641 C1.54502263 52.05439085 1.59736785 56.87189455 1.65294075 61.68938446 C1.67333504 63.5281778 1.69205293 65.36699052 1.70907402 67.20581818 C1.73318277 69.779536 1.76322851 72.35312069 1.79467773 74.92675781 C1.8004332 75.68848801 1.80618866 76.4502182 1.81211853 77.23503113 C1.8592139 80.62146461 1.94501886 83.76160079 3 87 C4.41543415 87.19658808 5.83244031 87.38187546 7.25 87.5625 C8.03890625 87.66691406 8.8278125 87.77132812 9.640625 87.87890625 C12.00532874 88.00027349 13.7511037 87.69633257 16 87 C15 88.5 15 88.5 13 90 C7.53364269 90.70533643 7.53364269 90.70533643 5 90 C1.386356 87.19852435 0.11794321 85.75092454 -0.60127258 81.17179871 C-0.61568434 79.65777241 -0.60265448 78.14332833 -0.56762695 76.62963867 C-0.56835709 75.79985504 -0.56908722 74.97007141 -0.56983948 74.11514282 C-0.56636581 71.38207827 -0.5275166 68.65073422 -0.48828125 65.91796875 C-0.4789523 64.01940339 -0.47183658 62.12082597 -0.46684265 60.22224426 C-0.44777927 55.23245843 -0.39868403 50.24340378 -0.34332275 45.25390625 C-0.29211611 40.15960582 -0.26932558 35.0651869 -0.24414062 29.97070312 C-0.19056476 19.98014803 -0.10525981 9.99013489 0 0 Z " fill="#C40D0C" transform="translate(388,308)"/>
<path d="M0 0 C2.4375 1.75 2.4375 1.75 4 4 C4.25 6.75 4.25 6.75 4 9 C3.34 8.67 2.68 8.34 2 8 C1.66666667 6.33333333 1.33333333 4.66666667 1 3 C-1.79870027 1.60064987 -3.90498792 1.74734595 -7 2 C-8.7511573 3.4166747 -8.7511573 3.4166747 -10 5 C-10.66 5 -11.32 5 -12 5 C-12.33 28.76 -12.66 52.52 -13 77 C-13.33 77 -13.66 77 -14 77 C-14.06960189 67.9767968 -14.12286286 58.95368644 -14.15543652 49.93027306 C-14.17107261 45.7400398 -14.19227306 41.54999061 -14.22631836 37.35986328 C-14.25898553 33.31389183 -14.27686848 29.26809712 -14.28463173 25.22200394 C-14.29016207 23.68067265 -14.30096154 22.13935071 -14.31719017 20.59809494 C-14.33906293 18.43416415 -14.34196292 16.27095767 -14.34057617 14.10693359 C-14.34723801 12.87671478 -14.35389984 11.64649597 -14.36076355 10.3789978 C-13.89686173 6.03398227 -12.70100601 2.39725494 -9.25 -0.4375 C-5.86232946 -1.28441764 -3.36855977 -0.84213994 0 0 Z " fill="#B6181B" transform="translate(299,174)"/>
<path d="M0 0 C0.99 0 1.98 0 3 0 C2.5144357 7.28346457 2.5144357 7.28346457 0.25 10.4375 C-2.3251787 12.22581854 -3.86905556 12.847271 -7 13 C-10.37103439 12.03684732 -12.95352992 10.90814169 -15 8 C-15.1875 5.3125 -15.1875 5.3125 -15 3 C-14.731875 3.598125 -14.46375 4.19625 -14.1875 4.8125 C-12.94353368 7.1040169 -12.12366882 8.4830937 -10 10 C-7 10.5 -7 10.5 -4 10 C-2.2488427 8.5833253 -2.2488427 8.5833253 -1 7 C-0.34 7 0.32 7 1 7 C0.67 4.69 0.34 2.38 0 0 Z " fill="#CD0E10" transform="translate(557,386)"/>
<path d="M0 0 C2.4375 1.75 2.4375 1.75 4 4 C4.25 6.75 4.25 6.75 4 9 C3.34 8.67 2.68 8.34 2 8 C1.66666667 6.33333333 1.33333333 4.66666667 1 3 C-1.79870027 1.60064987 -3.90498792 1.74734595 -7 2 C-8.7511573 3.4166747 -8.7511573 3.4166747 -10 5 C-10.66 5 -11.32 5 -12 5 C-12.33 5.99 -12.66 6.98 -13 8 C-12.75775727 4.36635898 -12.62053762 2.5657843 -9.875 0.0625 C-6.09609244 -1.33405279 -3.86871463 -1.05510399 0 0 Z " fill="#C41214" transform="translate(299,174)"/>
<path d="M0 0 C0.66 0 1.32 0 2 0 C1.64715325 2.61106596 1.30406662 4.55190182 -0.1875 6.75 C-2.81730554 8.56365899 -4.8201111 8.87280444 -8 9 C-10.875 7.5625 -10.875 7.5625 -13 6 C-9.58900832 6 -6.36911686 6.49145406 -3 7 C-3.33 6.01 -3.66 5.02 -4 4 C-3.34 3.67 -2.68 3.34 -2 3 C-1.34 3.33 -0.68 3.66 0 4 C0 2.68 0 1.36 0 0 Z " fill="#D10F0F" transform="translate(45,390)"/>
<path d="M0 0 C0.33 0 0.66 0 1 0 C1.28875 0.94875 1.5775 1.8975 1.875 2.875 C2.76825109 6.05211578 2.76825109 6.05211578 5 8 C6.98491642 7.73323796 6.98491642 7.73323796 9 7 C9.99 6.67 10.98 6.34 12 6 C12.99 6.66 13.98 7.32 15 8 C11.31494085 10.4567061 8.27963474 10.68887481 4 10 C1.5 8.375 1.5 8.375 0 6 C-0.25 2.75 -0.25 2.75 0 0 Z " fill="#D60D11" transform="translate(184,388)"/>
<path d="M0 0 C0.33 0 0.66 0 1 0 C1.28875 0.94875 1.5775 1.8975 1.875 2.875 C2.76825109 6.05211578 2.76825109 6.05211578 5 8 C7.06874034 8.6425235 7.06874034 8.6425235 9 9 C9 8.34 9 7.68 9 7 C9.99 6.67 10.98 6.34 12 6 C12.99 6.66 13.98 7.32 15 8 C11.31494085 10.4567061 8.27963474 10.68887481 4 10 C1.5 8.375 1.5 8.375 0 6 C-0.25 2.75 -0.25 2.75 0 0 Z " fill="#D50E12" transform="translate(312,388)"/>
<path d="M0 0 C0.66 0.66 1.32 1.32 2 2 C0.39125 1.938125 0.39125 1.938125 -1.25 1.875 C-5.49742368 1.97534888 -5.49742368 1.97534888 -9 4 C-9.80528889 6.05000871 -9.80528889 6.05000871 -10 8 C-10.66 8 -11.32 8 -12 8 C-11.68306247 5.06832781 -11.36774166 3.41017339 -9.375 1.1875 C-6.1090958 -0.4454521 -3.59930998 -0.33326944 0 0 Z " fill="#D10F0F" transform="translate(93,302)"/>
<path d="M0 0 C0.66 0.66 1.32 1.32 2 2 C0.948125 1.896875 -0.10375 1.79375 -1.1875 1.6875 C-5.91490102 2.07499189 -6.95969142 3.52536163 -10 7 C-10.66 7 -11.32 7 -12 7 C-11.62120265 4.80297535 -11.09789619 3.16124078 -9.9375 1.25 C-6.68799037 -0.84645783 -3.8077764 -0.30220448 0 0 Z " fill="#D70C10" transform="translate(503,302)"/>
<path d="M0 0 C0.66 0.33 1.32 0.66 2 1 C2 1.99 2 2.98 2 4 C3.41543415 4.19658808 4.83244031 4.38187546 6.25 4.5625 C7.03890625 4.66691406 7.8278125 4.77132813 8.640625 4.87890625 C11.00532874 5.00027349 12.7511037 4.69633257 15 4 C14 5.5 14 5.5 12 7 C8.90521282 7.39932738 6.95967021 7.64490868 4 7 C1 4.5 1 4.5 -1 2 C-0.67 1.34 -0.34 0.68 0 0 Z " fill="#CF0F10" transform="translate(389,391)"/>
<path d="M0 0 C3.49055876 0.9973025 4.95830306 1.92912428 7.0625 4.875 C6.8125 7.125 6.8125 7.125 6.0625 8.875 C6.0625 7.885 6.0625 6.895 6.0625 5.875 C4.4125 5.545 2.7625 5.215 1.0625 4.875 C1.0625 3.885 1.0625 2.895 1.0625 1.875 C-1.2475 1.875 -3.5575 1.875 -5.9375 1.875 C-2.9375 -0.125 -2.9375 -0.125 0 0 Z " fill="#CB1114" transform="translate(423.9375,127.125)"/>
<path d="M0 0 C0 0.33 0 0.66 0 1 C-2.64 1 -5.28 1 -8 1 C-8.66 2.32 -9.32 3.64 -10 5 C-10.66 4.67 -11.32 4.34 -12 4 C-12.33 4.99 -12.66 5.98 -13 7 C-12.73136414 3.68682445 -12.40940132 2.36123646 -9.875 0.125 C-6.21463337 -1.30731738 -3.79126394 -0.8177236 0 0 Z " fill="#D11012" transform="translate(479,178)"/>
<path d="M0 0 C1.19109375 -0.03867187 1.19109375 -0.03867187 2.40625 -0.078125 C3.0971875 0.03015625 3.788125 0.1384375 4.5 0.25 C5.16 1.24 5.82 2.23 6.5 3.25 C5.61248047 3.07210938 5.61248047 3.07210938 4.70703125 2.890625 C-0.67965216 1.95518746 -0.67965216 1.95518746 -5.5625 4.1875 C-6.5215625 5.2084375 -6.5215625 5.2084375 -7.5 6.25 C-7.125 3.8125 -7.125 3.8125 -6.5 1.25 C-4.15897141 0.07948571 -2.60647047 0.0507754 0 0 Z " fill="#CF0D10" transform="translate(320.5,293.75)"/>
<path d="M0 0 C3.4375 0.0625 3.4375 0.0625 7 1 C9 3.375 9 3.375 10 6 C9.67 6.99 9.34 7.98 9 9 C8.67 7.35 8.34 5.7 8 4 C4.7 3.34 1.4 2.68 -2 2 C-1.34 1.34 -0.68 0.68 0 0 Z " fill="#D30E14" transform="translate(190,231)"/>
<path d="M0 0 C-0.99 0.66 -1.98 1.32 -3 2 C-3.515625 2.53625 -4.03125 3.0725 -4.5625 3.625 C-6 5 -6 5 -8 5 C-8.33 5.99 -8.66 6.98 -9 8 C-8.6875 5.125 -8.6875 5.125 -8 2 C-4.77208445 -0.1519437 -3.71599191 -0.20086443 0 0 Z " fill="#D40E10" transform="translate(295,174)"/>
<path d="M0 0 C2.00841268 0.01421885 4.01537247 0.13420475 6.01953125 0.265625 C2.33218367 2.72385672 -0.67746846 3.27805116 -4.98046875 4.265625 C-3.72152968 1.74774686 -2.88459378 0.38688832 0 0 Z " fill="#D10C17" transform="translate(61.98046875,355.734375)"/>
<path d="M0 0 C0.99 0.33 1.98 0.66 3 1 C1.625 3.5 1.625 3.5 0 6 C-0.66 6 -1.32 6 -2 6 C-1.34 4.02 -0.68 2.04 0 0 Z " fill="#DD0A0E" transform="translate(338,260)"/>
<path d="M0 0 C0.721875 0.103125 1.44375 0.20625 2.1875 0.3125 C-0.9379959 2.95715038 -3.90038267 4.15664715 -7.8125 5.3125 C-3.50480769 0.38942308 -3.50480769 0.38942308 0 0 Z " fill="#CB1114" transform="translate(12.8125,85.6875)"/>
<path d="M0 0 C0.66 0.33 1.32 0.66 2 1 C0.71937515 2.7074998 -0.61767557 4.37373596 -2 6 C-2.66 6 -3.32 6 -4 6 C-2.25 1.125 -2.25 1.125 0 0 Z " fill="#D50D0D" transform="translate(111,83)"/>
</svg>
